<svg width="30" height="30" viewBox="0 0 30 30" fill="none" xmlns="http://www.w3.org/2000/svg">
    <path d="M25.2052 28.9998H3.8527C3.09611 28.9998 2.37052 28.6573 1.83554 28.0476C1.30055 27.4379 1 26.6111 1 25.7489H22.3525C22.3525 26.6111 22.653 27.4379 23.188 28.0476C23.723 28.6573 24.4486 28.9998 25.2052 28.9998V28.9998Z"
          stroke="#040F1F" stroke-width="2"/>
    <path d="M7.1095 22.7286C6.9929 23.7827 6.85299 24.7925 6.71307 25.7491H22.3524C22.3524 26.6113 22.6529 27.4382 23.1879 28.0478C23.7229 28.6575 24.4485 29 25.2051 29C29.3248 29 28.9828 18.2287 28.9983 13.5783C29.0078 9.36265 28.6957 5.15405 28.0655 1H6.71307C6.94626 2.55014 7.14836 4.23315 7.3116 6.03132"
          stroke="#040F1F" stroke-width="2"/>
    <path d="M12.1459 7.32471H10.2181C9.24366 7.32471 8.45367 8.22297 8.45367 9.33103C8.45367 10.4391 9.24366 11.3374 10.2181 11.3374H12.1459C13.1203 11.3374 13.9103 10.4391 13.9103 9.33103C13.9103 8.22297 13.1203 7.32471 12.1459 7.32471Z"
          stroke="#040F1F" stroke-width="2"/>
    <path d="M16.9031 9.33533H5.46125C4.48676 9.33533 3.69678 10.2356 3.69678 11.3461V19.1322C3.69678 20.2427 4.48676 21.143 5.46125 21.143H16.9031C17.8776 21.143 18.6676 20.2427 18.6676 19.1322V11.3461C18.6676 10.2356 17.8776 9.33533 16.9031 9.33533Z"
          fill="#1673FF"/>
</svg>
