<svg width="28" height="28" viewBox="0 0 28 28" fill="none" xmlns="http://www.w3.org/2000/svg">
    <g clip-path="url(#clip0_1_5129)">
        <path d="M10.6321 20.0215L5.68482 25.0288C5.50795 25.186 5.36484 25.3783 5.26432 25.5937C5.16379 25.8092 5.108 26.0432 5.10039 26.2813C5.09278 26.5194 5.1335 26.7566 5.22006 26.9782C5.30661 27.1997 5.43715 27.4009 5.60359 27.5694C5.77004 27.7379 5.96887 27.87 6.18777 27.9576C6.40667 28.0452 6.64101 28.0864 6.87628 28.0787C7.11155 28.071 7.34276 28.0145 7.55561 27.9128C7.76846 27.8111 7.95843 27.6662 8.11377 27.4872L13.0611 22.4799L10.6321 20.0215Z"
              fill="#1673FF"/>
        <path d="M5.45463 14.9313L0.499863 19.9386C0.195382 20.2691 0.0297299 20.7065 0.0378851 21.1583C0.0460403 21.6102 0.227364 22.0411 0.54357 22.3602C0.859776 22.6792 1.28611 22.8614 1.73256 22.8683C2.17901 22.8752 2.61062 22.7062 2.93627 22.397L7.88358 17.3897L5.45463 14.9313Z"
              fill="#1673FF"/>
        <path d="M15.0581 24.5915L19.0144 20.5871C20.3098 19.27 21.037 17.4873 21.037 15.6289C21.037 13.7705 20.3098 11.9877 19.0144 10.6706L17.1965 8.82307C15.8932 7.51568 14.1325 6.78217 12.2976 6.78217C10.4626 6.78217 8.70194 7.51568 7.39869 8.82307L3.43488 12.8198L13.2475 22.7665"
              stroke="#040F1F" stroke-width="2"/>
        <path d="M18.135 9.80337L19.6773 8.24237C19.9026 8.01474 20.0814 7.74438 20.2033 7.44676C20.3252 7.14915 20.388 6.83012 20.388 6.50793C20.388 6.18573 20.3252 5.8667 20.2033 5.56909C20.0814 5.27147 19.9026 5.00111 19.6773 4.77348V4.77348C19.3303 4.43199 19.0924 3.99307 18.9942 3.51337C18.896 3.03368 18.9421 2.53521 19.1266 2.08229C19.311 1.62938 19.6254 1.2428 20.029 0.972449C20.4326 0.702094 20.907 0.560369 21.391 0.56556H27.9999"
              stroke="#040F1F" stroke-width="2" stroke-linejoin="round"/>
        <path d="M9.31299 12.8215C9.69699 12.4327 10.1529 12.1243 10.6547 11.9139C11.1565 11.7035 11.6943 11.5952 12.2374 11.5952C12.7806 11.5952 13.3184 11.7035 13.8202 11.9139C14.3219 12.1243 14.7778 12.4327 15.1618 12.8215"
              stroke="#040F1F" stroke-width="2"/>
    </g>
    <defs>
        <clipPath id="clip0_1_5129">
            <rect width="28" height="28" fill="white"/>
        </clipPath>
    </defs>
</svg>
