<svg width="28" height="28" viewBox="0 0 28 28" fill="none" xmlns="http://www.w3.org/2000/svg">
    <g clip-path="url(#clip0_1_5117)">
        <path d="M22.8522 17.1341C23.9402 16.1049 21.963 12.5656 18.4361 9.22898C14.9092 5.89235 11.1681 4.02185 10.0802 5.0511C8.99224 6.08036 10.9694 9.61961 14.4963 12.9562C18.0232 16.2929 21.7643 18.1634 22.8522 17.1341Z"
              stroke="#040F1F" stroke-width="2" stroke-linejoin="round"/>
        <path d="M22.8522 17.1273L3.4842 25.7342C3.1095 25.8996 2.6899 25.9513 2.28294 25.8822C1.87597 25.8131 1.50156 25.6266 1.21102 25.3483C0.920478 25.0699 0.728037 24.7134 0.660074 24.3276C0.592111 23.9418 0.651953 23.5455 0.831397 23.1931L8.31581 8.50467"
              stroke="#040F1F" stroke-width="2" stroke-linejoin="round"/>
        <path d="M12.2495 22.1703C12.4581 22.6213 12.5707 23.1067 12.581 23.5988C12.5913 24.091 12.499 24.5803 12.3094 25.0387C12.1198 25.4971 11.8367 25.9157 11.4761 26.2706C11.1155 26.6255 10.6846 26.9097 10.2079 27.1071C9.7312 27.3044 9.21809 27.411 8.69787 27.4207C8.17764 27.4304 7.66048 27.3431 7.17592 27.1638C6.69135 26.9844 6.24887 26.7165 5.87374 26.3754C5.49861 26.0343 5.19818 25.6266 4.98959 25.1756"
              stroke="#040F1F" stroke-width="2" stroke-linejoin="round"/>
        <path d="M16.4657 7.26156C16.3659 7.26156 16.2578 7.26156 16.158 7.26156C15.1984 7.33493 14.2985 7.73196 13.6224 8.38032C12.9462 9.02868 12.5387 9.88525 12.474 10.794C13.1112 11.552 13.7943 12.2743 14.5198 12.9575C15.2434 13.6395 16.004 14.2855 16.7984 14.8929C17.7564 14.8223 18.6561 14.4297 19.3348 13.7861C20.0135 13.1426 20.4264 12.2906 20.499 11.3841C20.499 11.2897 20.499 11.1952 20.499 11.093C20.499 10.0795 20.0746 9.10738 19.3187 8.3893C18.5628 7.67122 17.5369 7.26572 16.4657 7.26156Z"
              fill="#1673FF"/>
        <path d="M22.8524 17.1273C21.763 18.1579 18.0291 16.2933 14.5364 12.9575C11.0437 9.62178 9.03122 6.08146 10.1206 5.09017"
              stroke="#040F1F" stroke-width="2" stroke-linejoin="round"/>
        <path d="M21.3304 6.46698L25.1557 2.84012" stroke="#040F1F" stroke-width="2" stroke-linejoin="round"/>
        <path d="M23.7668 9.81849H27.9997" stroke="#040F1F" stroke-width="2" stroke-linejoin="round"/>
        <path d="M17.7296 4.0045V0" stroke="#040F1F" stroke-width="2" stroke-linejoin="round"/>
    </g>
    <defs>
        <clipPath id="clip0_1_5117">
            <rect width="28" height="28" fill="white"/>
        </clipPath>
    </defs>
</svg>
