<svg width="23" height="28" viewBox="0 0 23 28" fill="none" xmlns="http://www.w3.org/2000/svg">
    <g clip-path="url(#clip0_1_5137)">
        <path d="M11.9962 6.47125L12.5996 8.11007C12.6467 8.23688 12.7381 8.34724 12.8608 8.42527C12.9835 8.5033 13.1311 8.54497 13.2824 8.54428H15.2275C15.3788 8.54375 15.5265 8.58562 15.6491 8.66388C15.7718 8.74213 15.8631 8.85271 15.9099 8.97969C15.9567 9.10666 15.9566 9.24347 15.9095 9.37038C15.8625 9.4973 15.771 9.60776 15.6483 9.68585L14.0604 10.6944C13.9389 10.772 13.8482 10.8815 13.8012 11.0072C13.7542 11.1329 13.7532 11.2685 13.7984 11.3947L14.4018 13.0335C14.4479 13.1604 14.4473 13.2968 14.4 13.4233C14.3527 13.5498 14.2612 13.6599 14.1387 13.7376C14.0161 13.8154 13.8688 13.857 13.7178 13.8563C13.5668 13.8556 13.4199 13.8128 13.2982 13.7339L11.7104 12.7254C11.5882 12.6468 11.4408 12.6045 11.2896 12.6045C11.1384 12.6045 10.9911 12.6468 10.8688 12.7254L9.28099 13.7339C9.15932 13.8128 9.01246 13.8556 8.86147 13.8563C8.71048 13.857 8.56313 13.8154 8.44056 13.7376C8.318 13.6599 8.22651 13.5498 8.17924 13.4233C8.13197 13.2968 8.13133 13.1604 8.17743 13.0335L8.78082 11.3947C8.82605 11.2685 8.82508 11.1329 8.77805 11.0072C8.73103 10.8815 8.64033 10.772 8.51882 10.6944L6.93097 9.68585C6.80875 9.60811 6.71751 9.49828 6.67031 9.37205C6.6231 9.24581 6.62234 9.10965 6.66814 8.98301C6.71394 8.85638 6.80394 8.74576 6.9253 8.66696C7.04665 8.58816 7.19313 8.54522 7.34381 8.54428H9.29687C9.44812 8.54497 9.59573 8.5033 9.71843 8.42527C9.84112 8.34724 9.93259 8.23688 9.97964 8.11007L10.583 6.47125C10.6085 6.32199 10.6938 6.18574 10.8234 6.08727C10.9531 5.98879 11.1185 5.93463 11.2896 5.93463C11.4607 5.93463 11.6261 5.98879 11.7558 6.08727C11.8855 6.18574 11.9708 6.32199 11.9962 6.47125Z"
              fill="#1673FF"/>
        <path d="M6.94683 17.894C6.94683 17.894 5.89884 25.5278 2.61993 25.4648L8.51086 27.4748C8.51086 27.4748 11.2896 27.0686 12.147 19.6168"
              stroke="#040F1F" stroke-width="2"/>
        <path d="M15.3146 17.894C15.3146 17.894 16.3547 25.5278 19.6336 25.4648L13.7506 27.4748C13.2511 27.2406 12.8297 26.8953 12.528 26.4733"
              stroke="#040F1F" stroke-width="2"/>
        <path d="M20.4833 12.6063L21.7615 11.4718C21.965 11.294 22.1266 11.0824 22.2369 10.8491C22.3472 10.6159 22.404 10.3658 22.404 10.1131C22.404 9.86039 22.3472 9.61021 22.2369 9.377C22.1266 9.14379 21.965 8.93218 21.7615 8.75439L20.4833 7.65484C20.0782 7.29553 19.85 6.80989 19.8481 6.30317V4.69937C19.8419 4.19408 19.6099 3.71136 19.2026 3.35602C18.7953 3.00068 18.2456 2.80139 17.6728 2.80142H15.8785C15.583 2.80477 15.2897 2.75495 15.0167 2.65501C14.7437 2.55507 14.4967 2.4071 14.2907 2.22013L13.0363 1.08556C12.6271 0.726313 12.0733 0.524632 11.496 0.524632C10.9188 0.524632 10.365 0.726313 9.95583 1.08556L8.67761 2.22013C8.27419 2.58514 7.72318 2.79418 7.14534 2.80142H5.32725C4.75855 2.80688 4.21489 3.0086 3.81273 3.36335C3.41058 3.71811 3.18191 4.19769 3.17571 4.69937V6.30317C3.17591 6.81232 2.94755 7.30082 2.54058 7.66185L1.2306 8.78241C0.823355 9.14333 0.594727 9.63185 0.594727 10.1411C0.594727 10.6503 0.823355 11.1388 1.2306 11.4998L2.51676 12.6063C2.72871 12.7881 2.89645 13.006 3.00975 13.2468C3.12304 13.4876 3.17951 13.7463 3.17571 14.007V15.6108C3.18191 16.1125 3.41058 16.5921 3.81273 16.9468C4.21489 17.3016 4.75855 17.5033 5.32725 17.5088H7.14534C7.72251 17.5086 8.27628 17.71 8.68555 18.0691L9.96377 19.1966C10.1653 19.3762 10.4052 19.5187 10.6696 19.616C10.9339 19.7133 11.2175 19.7634 11.504 19.7634C11.7904 19.7634 12.074 19.7133 12.3384 19.616C12.6028 19.5187 12.8427 19.3762 13.0442 19.1966L14.2907 18.0691C14.4987 17.8859 14.7466 17.7418 15.0196 17.6455C15.2925 17.5492 15.5847 17.5027 15.8785 17.5088H17.6966C18.2694 17.5032 18.8166 17.2986 19.2194 16.9393C19.6223 16.5801 19.8482 16.0951 19.8481 15.5898V14.007C19.8412 13.7478 19.894 13.49 20.0031 13.2493C20.1123 13.0086 20.2756 12.7898 20.4833 12.6063V12.6063Z"
              stroke="#040F1F" stroke-width="2"/>
        <path d="M17.6093 7.32569V6.1561C17.6093 5.78461 17.442 5.42834 17.1442 5.16566C16.8464 4.90298 16.4425 4.7554 16.0214 4.7554H14.6956"
              stroke="#040F1F" stroke-width="1.5" stroke-linejoin="round"/>
        <path d="M5.04146 8.32016L4.10463 9.14657C3.95581 9.27679 3.83768 9.4317 3.75707 9.60239C3.67645 9.77308 3.63495 9.95616 3.63495 10.1411C3.63495 10.326 3.67645 10.5091 3.75707 10.6797C3.83768 10.8504 3.95581 11.0054 4.10463 11.1356L5.04146 11.969"
              stroke="#040F1F" stroke-width="1.5" stroke-linejoin="round"/>
    </g>
    <defs>
        <clipPath id="clip0_1_5137">
            <rect width="23" height="28" fill="white"/>
        </clipPath>
    </defs>
</svg>
