<svg width="30" height="29" viewBox="0 0 30 29" fill="none" xmlns="http://www.w3.org/2000/svg">
    <path d="M1 28.9921V21.0372C1.00801 18.6289 1.95657 16.3217 3.6385 14.6195C5.32043 12.9174 7.59903 11.9585 9.97662 11.9524V11.9524C12.3542 11.9585 14.6328 12.9174 16.3147 14.6195C17.9967 16.3217 18.9452 18.6289 18.9532 21.0372"
          stroke="#040F1F" stroke-width="2"/>
    <path d="M9.97705 9.59288C12.3197 9.59288 14.2188 7.6693 14.2188 5.29644C14.2188 2.92358 12.3197 1 9.97705 1C7.63443 1 5.73535 2.92358 5.73535 5.29644C5.73535 7.6693 7.63443 9.59288 9.97705 9.59288Z"
          stroke="#040F1F" stroke-width="2"/>
    <path d="M20.3424 17.571C21.2775 16.8544 22.4175 16.4659 23.5901 16.4642V16.4642C25.0244 16.4663 26.3993 17.0443 27.4135 18.0716C28.4277 19.0988 28.9983 20.4915 29.0003 21.9443V29"
          stroke="#040F1F" stroke-width="2"/>
    <path d="M23.5899 14.3043C25.0022 14.3043 26.147 13.1446 26.147 11.7141C26.147 10.2836 25.0022 9.12393 23.5899 9.12393C22.1776 9.12393 21.0327 10.2836 21.0327 11.7141C21.0327 13.1446 22.1776 14.3043 23.5899 14.3043Z"
          stroke="#040F1F" stroke-width="2"/>
    <path d="M25.9495 25.4182L21.0401 21.8519V23.0893H14.3171V27.747H21.0401V28.9921L25.9495 25.4182Z" fill="#1673FF"/>
</svg>
