<svg width="24" height="24" viewBox="0 0 24 24" fill="none" xmlns="http://www.w3.org/2000/svg">
    <g clip-path="url(#clip0_1_4698)">
        <path fill-rule="evenodd" clip-rule="evenodd"
              d="M12 0.300293C5.4 0.300293 0 5.70029 0 12.3003C0 17.5503 3.45 22.0503 8.25 23.7003C8.85 23.8503 9 23.4003 9 23.1003C9 22.8003 9 22.0503 9 21.0003C5.7 21.7503 4.95 19.5003 4.95 19.5003C4.35 18.1503 3.6 17.7003 3.6 17.7003C2.55 16.9503 3.75 16.9503 3.75 16.9503C4.95 17.1003 5.55 18.1503 5.55 18.1503C6.6 20.1003 8.4 19.5003 9 19.2003C9.15 18.4503 9.45 17.8503 9.75 17.5503C7.05 17.2503 4.35 16.2003 4.35 11.5503C4.35 10.2003 4.8 9.15029 5.55 8.40029C5.4 8.10029 4.95 6.90029 5.7 5.25029C5.7 5.25029 6.75 4.95029 9 6.45029C9.9 6.15029 10.95 6.00029 12 6.00029C13.05 6.00029 14.1 6.15029 15 6.45029C17.25 4.95029 18.3 5.25029 18.3 5.25029C18.9 6.90029 18.6 8.10029 18.45 8.40029C19.2 9.30029 19.65 10.3503 19.65 11.5503C19.65 16.2003 16.8 17.1003 14.1 17.4003C14.55 18.0003 15 18.7503 15 19.8003C15 21.4503 15 22.6503 15 23.1003C15 23.4003 15.15 23.8503 15.9 23.7003C20.7 22.0503 24.15 17.5503 24.15 12.3003C24 5.70029 18.6 0.300293 12 0.300293Z"
              fill="#0A121E"/>
    </g>
    <defs>
        <clipPath id="clip0_1_4698">
            <rect width="24" height="24" fill="white"/>
        </clipPath>
    </defs>
</svg>
