<svg width="24" height="24" viewBox="0 0 24 24" fill="none" xmlns="http://www.w3.org/2000/svg">
    <path d="M22.5 0H1.5C1.10218 0 0.720644 0.158035 0.43934 0.43934C0.158035 0.720644 0 1.10218 0 1.5L0 22.5C0 22.8978 0.158035 23.2794 0.43934 23.5607C0.720644 23.842 1.10218 24 1.5 24H22.5C22.8978 24 23.2794 23.842 23.5607 23.5607C23.842 23.2794 24 22.8978 24 22.5V1.5C24 1.10218 23.842 0.720644 23.5607 0.43934C23.2794 0.158035 22.8978 0 22.5 0V0ZM19.938 5.6865L18.651 6.921C18.5953 6.96172 18.5518 7.01697 18.5253 7.08073C18.4989 7.14448 18.4905 7.21428 18.501 7.2825V16.35C18.4905 16.4182 18.4989 16.488 18.5253 16.5518C18.5518 16.6155 18.5953 16.6708 18.651 16.7115L19.908 17.946V18.2175H13.5855V17.946L14.8875 16.6815C15.015 16.554 15.015 16.5165 15.015 16.32V8.9895L11.4 18.186H10.9065L6.6915 8.991V15.15C6.67416 15.278 6.68623 15.4083 6.72677 15.531C6.76732 15.6537 6.83528 15.7655 6.9255 15.858L8.619 17.913V18.1845H3.819V17.913L5.5125 15.858C5.60199 15.7654 5.66844 15.6531 5.70649 15.5301C5.74453 15.4071 5.7531 15.2769 5.7315 15.15V8.0265C5.74091 7.92864 5.72707 7.82994 5.69109 7.73844C5.65512 7.64695 5.59804 7.56525 5.5245 7.5L4.0245 5.6865V5.415H8.7L12.3 13.3395L15.483 5.415H19.9395L19.938 5.6865Z"
          fill="#0A121E"/>
</svg>
