<svg width="24" height="24" viewBox="0 0 24 24" fill="none" xmlns="http://www.w3.org/2000/svg">
    <g clip-path="url(#clip0_1_4704)">
        <path d="M23.9521 2.52633C23.9333 2.43776 23.8911 2.35585 23.8299 2.28911C23.7687 2.22238 23.6907 2.17325 23.6041 2.14683C23.2888 2.08395 22.9623 2.10726 22.6591 2.21433C22.6591 2.21433 1.63063 9.77133 0.429134 10.6083C0.171134 10.7898 0.0841338 10.8933 0.0406338 11.0163C-0.166366 11.6163 0.480134 11.8758 0.480134 11.8758L5.89963 13.6413C5.99114 13.6578 6.08527 13.6522 6.17413 13.6248C7.40713 12.8463 18.5791 5.79183 19.2241 5.55483C19.3261 5.52483 19.4011 5.55483 19.3741 5.62833C19.1161 6.52833 9.46513 15.1068 9.41263 15.1593C9.38702 15.1807 9.36696 15.208 9.35417 15.2388C9.34137 15.2696 9.33621 15.3031 9.33913 15.3363L8.83363 20.6283C8.83363 20.6283 8.62063 22.2783 10.2676 20.6283C11.4361 19.4598 12.5581 18.4908 13.1176 18.0213C14.9806 19.3083 16.9861 20.7303 17.8516 21.4713C17.9966 21.6125 18.1686 21.7228 18.3573 21.7958C18.5459 21.8687 18.7474 21.9028 18.9496 21.8958C19.1986 21.8651 19.4323 21.7594 19.6198 21.5927C19.8074 21.4261 19.9398 21.2064 19.9996 20.9628C19.9996 20.9628 23.8411 5.55033 23.9686 3.47583C23.9806 3.27333 24.0001 3.15033 24.0001 3.00033C24.0056 2.84089 23.9895 2.68143 23.9521 2.52633Z"
              fill="#0A121E"/>
    </g>
    <defs>
        <clipPath id="clip0_1_4704">
            <rect width="24" height="24" fill="white"/>
        </clipPath>
    </defs>
</svg>
