<svg width="113" height="85" viewBox="0 0 113 85" fill="none" xmlns="http://www.w3.org/2000/svg">
    <path d="M14.7371 18.1498C14.1535 12.4124 13.4032 7.02266 12.4445 2H78.8464C80.8414 13.5956 81.9834 25.3035 82.2645 37.0427C82.6105 52.4257 81.4666 67.8065 78.8464 83H12.4445C13.4657 77.0887 14.3411 70.6559 14.9455 63.6821"
          stroke="#040F1F" stroke-width="4"/>
    <path d="M90.1138 83.0002C90.1138 83.0002 90.1138 23.8165 112 20.8374H81.3675" stroke="#040F1F" stroke-width="4"/>
    <path d="M20.0191 53.591C22.5409 54.2382 25.1459 54.5784 27.7758 54.5952C33.5111 54.5584 39.1278 52.9841 44.0218 50.0414C48.9158 47.0988 52.9019 42.8992 55.5516 37.8943C53.3829 33.7899 50.3146 30.2268 46.5832 27.4544L37.4245 36.4658C37.4987 36.9364 37.5359 37.414 37.5348 37.8943C37.535 39.1091 37.2898 40.3118 36.8135 41.4326C36.3373 42.5534 35.6395 43.57 34.7607 44.4232C33.8818 45.2765 32.8394 45.9494 31.6941 46.403C30.5487 46.8566 29.3231 47.0818 28.0886 47.0655C27.6423 47.0606 27.1988 47.0242 26.7612 46.9575L20.0191 53.591Z"
          fill="#1673FF"/>
    <path d="M35.7633 32.4887C34.7592 31.1223 33.3908 30.0519 31.806 29.398C30.1054 28.6962 28.2318 28.5054 26.4211 28.8495C24.6105 29.1936 22.9439 30.0573 21.6313 31.3317C20.3186 32.6061 19.4187 34.2342 19.0448 36.011C18.671 37.7877 18.84 39.6336 19.5304 41.316C20.1895 42.9218 21.2955 44.3102 22.7191 45.323L15.7585 52.1716C14.3019 51.5694 12.888 50.8581 11.5298 50.0414C6.63579 47.0988 2.64965 42.8992 0 37.8943C2.64603 32.8865 6.63134 28.6844 11.5261 25.7413C16.4209 22.7982 22.0394 21.2257 27.7758 21.1934C33.1698 21.2237 38.4597 22.616 43.1416 25.2291L35.7633 32.4887Z"
          fill="#1673FF"/>
    <path d="M51.6058 15L5 60.8558" stroke="#040F1F" stroke-width="4" stroke-linejoin="bevel"/>
</svg>
