<svg width="111" height="85" viewBox="0 0 111 85" fill="none" xmlns="http://www.w3.org/2000/svg">
    <path d="M6.46375 29.5704V13.9789C6.46375 10.8019 7.7258 7.75501 9.97228 5.50853C12.2188 3.26206 15.2656 2 18.4426 2H75.4849C78.6619 2 81.7087 3.26206 83.9552 5.50853C86.2017 7.75501 87.4637 10.8019 87.4637 13.9789V71.0211C87.4637 72.5942 87.1539 74.1519 86.5519 75.6052C85.9499 77.0586 85.0676 78.3791 83.9552 79.4915C82.8429 80.6038 81.5223 81.4862 80.069 82.0882C78.6156 82.6902 77.058 83 75.4849 83H18.4426C16.8695 83 15.3118 82.6902 13.8585 82.0882C12.4052 81.4862 11.0846 80.6038 9.97228 79.4915C8.85993 78.3791 7.97758 77.0586 7.37558 75.6052C6.77359 74.1519 6.46375 72.5942 6.46375 71.0211V68.5916"
          stroke="#040F1F" stroke-width="4" stroke-linejoin="round"/>
    <path d="M70.6672 82.9155H98.7024C101.179 82.9155 103.554 81.9317 105.305 80.1805C107.057 78.4292 108.04 76.0541 108.04 73.5775V11.338C108.04 8.86143 107.057 6.48627 105.305 4.73505C103.554 2.98383 101.179 2 98.7024 2H96.5898"
          stroke="#040F1F" stroke-width="4" stroke-linejoin="round"/>
    <path d="M45.7807 62.0416C56.5969 62.0416 65.3652 53.2733 65.3652 42.4571C65.3652 31.6408 56.5969 22.8726 45.7807 22.8726C34.9645 22.8726 26.1962 31.6408 26.1962 42.4571C26.1962 53.2733 34.9645 62.0416 45.7807 62.0416Z"
          stroke="#040F1F" stroke-width="4" stroke-linejoin="round"/>
    <path d="M45.7802 53.0425C51.6258 53.0425 56.3647 48.3037 56.3647 42.458C56.3647 36.6124 51.6258 31.8735 45.7802 31.8735C39.9345 31.8735 35.1957 36.6124 35.1957 42.458C35.1957 48.3037 39.9345 53.0425 45.7802 53.0425Z"
          fill="#1673FF"/>
    <path d="M65.4494 22.7881L59.6395 28.6191" stroke="#040F1F" stroke-width="4" stroke-linejoin="round"/>
    <path d="M31.9426 56.2964L26.1116 62.1274" stroke="#040F1F" stroke-width="4" stroke-linejoin="round"/>
    <path d="M65.4494 62.1274L59.6395 56.2964" stroke="#040F1F" stroke-width="4" stroke-linejoin="round"/>
    <path d="M31.9426 28.6191L26.1116 22.7881" stroke="#040F1F" stroke-width="4" stroke-linejoin="round"/>
    <path d="M12.9288 42.6688C12.9469 41.5008 12.6481 40.3497 12.0643 39.3378C11.4805 38.326 10.6334 37.4913 9.61309 36.9224C8.59279 36.3535 7.43742 36.0717 6.26977 36.1069C5.10213 36.1422 3.96585 36.4932 2.98172 37.1225C1.99759 37.7519 1.20239 38.6362 0.680639 39.6814C0.158891 40.7266 -0.0699053 41.8936 0.0185713 43.0584C0.107048 44.2233 0.50949 45.3423 1.18312 46.2967C1.85675 47.2511 2.7764 48.0051 3.8443 48.4787L6.46402 62.5913L9.08374 48.4787C10.2221 47.9917 11.1928 47.1819 11.8762 46.1494C12.5595 45.1169 12.9254 43.9069 12.9288 42.6688Z"
          fill="#1673FF"/>
</svg>
