<svg width="76" height="13" viewBox="0 0 76 13" fill="none" xmlns="http://www.w3.org/2000/svg">
    <path d="M36.1523 4.06208C36.1523 5.64247 36.0012 10.5374 36.0012 10.5374C36.0012 11.4849 36.3018 11.9069 37.1526 11.9069V12.3288H33.8019V11.9051C34.6511 11.9051 35.1028 11.4849 35.1028 10.5356L35.4034 2.53352C35.1521 1.90422 34.9024 1.69148 34.252 1.63963V1.27135H36.8028L39.503 8.74785L42.2542 1.27135H44.5537V1.63963C43.9033 1.63963 43.5534 1.95607 43.5534 2.69264L43.854 10.4319C43.854 11.5886 44.0527 11.9051 44.9528 11.9051V12.327H41.1011V11.9051C41.8517 11.9051 42.2016 11.6441 42.1523 10.4319C42.1523 10.4319 42.0029 5.0096 41.9519 4.06208L40.1008 9.43257C39.8235 10.1894 39.5899 10.9631 39.4011 11.7495L38.7999 11.8014C38.6505 11.2221 38.2497 10.1691 38.2497 10.1691C38.2497 10.1691 36.7026 5.58884 36.1523 4.06208ZM33.0003 12.3806C32.7999 12.3288 32.6013 12.3288 32.3992 12.3288C32.0001 12.3288 31.2987 12.5379 30.4495 12.5379C27.199 12.5379 24.7977 10.4856 24.7977 6.69369C24.7977 3.48283 27.0479 1.00676 30.4988 1.00676C31.2987 1.00676 32.1988 1.16587 32.9494 1.48231C33.0988 1.3232 33.1498 1.2195 33.2992 1.06039H33.5998C33.5506 1.63963 33.3502 3.53647 33.3502 3.53647H33.0496C32.8492 2.42983 32.3007 1.69327 30.5497 1.69327C28.449 1.69327 26.5486 3.43099 26.5486 6.64363C26.5486 10.2764 28.4982 11.855 30.6499 11.855C32.051 11.855 32.9001 11.013 33.4504 9.95996L33.8002 10.1173L33.0003 12.3806V12.3806ZM23.5495 3.32372H23.1996C23.1504 2.32256 22.8498 2.00792 22.0991 2.00792H20.6488V10.2746C20.6488 11.6441 20.8985 11.9051 21.7493 11.9051V12.327H17.9995V11.9051C18.8486 11.9051 19.1 11.6441 19.1 10.221V2.00792H17.648C16.6969 2.00792 16.5475 2.27072 16.2978 3.32372H15.9463L16.1959 0.954913L16.4456 1.00676C16.5458 1.26956 16.7462 1.26956 17.3457 1.26956H22.1959C23.096 1.26956 23.2964 1.26956 23.4968 0.953125H23.7974L23.5495 3.32372V3.32372Z"
          fill="#455A74"/>
    <path d="M12.9474 12.5895C12.246 12.5895 11.6974 12.4841 11.2967 12.3285C10.9965 12.2541 10.7098 12.1291 10.4475 11.9585C10.3149 12.103 10.1971 12.2618 10.096 12.4322L9.79538 12.3285L10.045 9.85246L10.3949 9.9043C10.5953 11.0628 11.3459 11.9048 12.8947 11.9048C14.0954 11.9048 14.8953 10.8518 14.8953 9.69513C14.8953 8.74761 14.5455 8.27385 13.3448 7.32632C12.9474 7.06173 12.5975 6.85077 12.2969 6.58976C11.1965 5.85141 10.4951 5.00936 10.4951 3.63992C10.4951 2.05953 11.745 1.00652 13.3957 1.00652C14.3468 1.00652 14.9462 1.32296 15.1466 1.42665L15.4982 1.00652L15.7478 1.05837L15.4982 3.32349L15.1466 3.27164C15.1466 2.21864 14.5472 1.74488 13.5469 1.74488C12.5975 1.74488 11.8961 2.27227 11.8961 3.27164C11.8961 4.16553 12.5466 4.74477 13.2972 5.27216C13.6963 5.53497 13.9969 5.74593 14.2975 5.95688C16.0484 7.27269 16.4475 8.11473 16.4475 9.37869C16.4475 11.2201 15.0974 12.5895 12.9474 12.5895V12.5895ZM7.24458 3.32349H6.84548C6.84548 2.37596 6.44469 2.00768 5.6448 2.00768H3.39459V6.16605H4.84492C5.59555 6.16605 5.745 5.74593 5.8452 5.06121H6.19504V8.00925H5.8452C5.745 7.22084 5.59555 6.90441 4.79567 6.90441H3.39459V10.4317C3.39459 11.7475 3.69518 11.9048 4.49507 11.9048V12.3267H0.694336V11.9048C1.64367 11.9048 1.79312 11.6438 1.79312 10.4317V2.6924C1.79312 1.95583 1.49252 1.6394 0.694336 1.6394V1.27111H5.89445C6.79453 1.27111 6.99323 1.21927 7.14438 0.902832H7.49422L7.24458 3.32349V3.32349ZM61.2072 3.95636V10.2744C61.2072 11.6438 61.5078 11.9048 62.3077 11.9048V12.3267H56.4062V11.9048C56.8562 11.9048 57.2553 11.7475 57.2553 11.4311C57.2553 11.2201 57.2061 10.8518 57.1059 10.4835L56.6541 8.95678H53.3544C53.3051 9.16595 52.704 10.9037 52.704 11.3774C52.704 11.7976 53.154 11.903 53.4546 11.903V12.325H50.7034V11.9048C51.2027 11.9048 51.6035 11.853 51.9533 10.7481L54.5041 2.16679C54.3564 1.79672 54.156 1.69124 53.8061 1.6394V1.27111H56.0563L58.7566 10.2744C59.0062 11.2201 59.2559 11.6957 59.6567 11.9048C60.2562 11.6957 60.4056 11.4847 60.4056 10.2744V2.6924C59.9556 2.05953 59.9063 1.6394 59.0555 1.6394V1.27111H61.6063L65.8078 8.79945V3.06068C65.8078 1.90399 65.5582 1.6394 64.7074 1.6394V1.27111H70.3083V1.6394C69.9584 1.6394 69.6578 1.79672 69.6578 2.16679C69.6578 2.42781 69.758 2.6924 69.8565 3.00884L71.4563 6.6416L73.0068 3.11253C73.2565 2.63877 73.3074 2.37596 73.3074 2.11316C73.3074 1.79672 73.107 1.6394 72.657 1.6394V1.27111H75.308V1.6394C74.6575 1.6394 74.2584 2.27227 73.9578 3.00884L71.908 7.4318V10.328C71.908 11.5902 72.2086 11.9066 73.0068 11.9066V12.3285H69.2061V11.9048C70.0077 11.9048 70.3066 11.5884 70.3066 10.3262V7.85193L68.1056 2.95699C67.7065 2.00947 67.5554 1.79851 67.3057 1.64118C66.8064 1.85214 66.6553 2.22043 66.6553 3.06247V11.17C66.6553 11.17 66.7045 11.8029 66.7555 12.5395L66.105 12.5913L61.2072 3.95636V3.95636ZM54.9559 3.42896L53.5565 8.22021H56.4571L54.9559 3.42896V3.42896Z"
          fill="#455A74"/>
    <path d="M48.7555 8.22059H48.0049V10.4857C48.0049 11.6442 48.3055 11.907 49.1546 11.907V12.3289H45.3029V11.9052C46.1045 11.9052 46.4034 11.5888 46.4034 10.4321V3.00921C46.4034 1.85251 46.1045 1.63977 45.3029 1.63977V1.27148H48.2036C51.0041 1.27148 52.6548 2.16716 52.6548 4.58782C52.6565 7.11574 50.6559 8.22059 48.7555 8.22059V8.22059ZM48.2545 2.00805H48.0049V7.43039H48.4549C50.1057 7.43039 50.9565 6.64198 50.9565 4.63966C50.9565 2.63735 50.2042 2.00805 48.2545 2.00805ZM31.3007 10.2211C29.4003 10.2211 28.1011 8.79983 28.1011 6.74746C28.1011 4.79878 29.4513 3.2738 31.3007 3.2738C33.1009 3.2738 34.451 4.74693 34.451 6.74746C34.451 8.69435 33.0516 10.2211 31.3007 10.2211ZM31.3007 3.90489C29.9998 3.90489 29.5498 5.22069 29.5498 6.74746C29.5498 8.16874 29.9506 9.59182 31.3007 9.59182C32.6016 9.59182 33.0007 8.16874 33.0007 6.69561C33.0007 5.27254 32.5014 3.90489 31.3007 3.90489V3.90489ZM9.29617 9.59003V9.21996C9.79546 9.21996 9.89566 9.06263 9.89566 8.90531C9.89203 8.72467 9.85811 8.54613 9.79546 8.37791C9.79546 8.37791 9.69527 7.95778 9.59507 7.64135H7.64545L7.44675 8.32607C7.38427 8.49371 7.35035 8.67163 7.34655 8.85167C7.34655 9.06263 7.54695 9.21996 7.84585 9.21996V9.59003H5.89453V9.21996C6.39382 9.21996 6.59422 9.06263 6.79462 8.48339L8.29589 3.74577C8.24494 3.5366 8.09549 3.37749 7.7966 3.37749V3.00921H9.39637C10.6972 7.01026 11.0471 8.06326 11.0471 8.06326C11.2967 8.95894 11.5464 9.21996 11.9472 9.21996V9.59003H9.29617V9.59003ZM8.59478 4.48234L7.84585 7.06211H9.39637L8.59478 4.48234V4.48234Z"
          fill="#455A74"/>
</svg>
