<svg width="69" height="19" viewBox="0 0 69 19" fill="none" xmlns="http://www.w3.org/2000/svg">
    <path d="M7.48854 2.14898H8.97734C9.88401 2.0097 10.8099 2.13216 11.6546 2.50307C12.7142 3.16786 13.4828 4.23812 13.7964 5.48552C14.0184 6.13921 14.0184 6.13921 14.5538 5.90769H14.9717V0.732659H0.9587V1.6451H1.53333C1.78303 1.6433 2.02996 1.69985 2.25595 1.81062C2.48195 1.92138 2.68128 2.08354 2.83929 2.28517C3.37474 3.18399 3.46616 4.19176 3.46616 9.43489C3.46616 15.0049 3.34862 16.3667 2.83929 17.0613C2.71355 17.2398 2.55076 17.3864 2.36307 17.4902C2.17537 17.594 1.96763 17.6522 1.75534 17.6605C0.9587 17.8103 0.9587 17.7967 0.9587 18.1644C0.914645 18.2873 0.914645 18.4227 0.9587 18.5457H9.8001C9.85861 18.4254 9.8891 18.2924 9.8891 18.1575C9.8891 18.0227 9.85861 17.8897 9.8001 17.7694C9.58595 17.7073 9.3677 17.6618 9.14711 17.6332C8.90848 17.6036 8.67261 17.5535 8.44189 17.4834C8.1115 17.2319 7.84977 16.8948 7.68257 16.5055C7.51537 16.1162 7.44849 15.6881 7.48854 15.2636C7.35794 14.3648 7.29264 12.7169 7.29264 11.3551V10.2792H7.81503C8.46586 10.2585 9.11632 10.3318 9.74786 10.4971C10.0504 10.6921 10.308 10.9543 10.5021 11.2651C10.6962 11.5758 10.8222 11.9274 10.871 12.2948L10.9885 12.7169H11.7852V6.68395H11.0538L10.9363 7.26954C10.8868 7.64523 10.7536 8.00359 10.5472 8.3158C10.3407 8.62801 10.067 8.88537 9.74786 9.06719C9.43881 9.1631 9.11321 9.18635 8.7945 9.13528H7.29264V7.66448C7.29264 6.13921 7.371 2.92524 7.42324 2.42135L7.48854 2.14898ZM68.6078 12.9485C67.9905 11.9124 67.0276 11.1509 65.9044 10.8104C65.0434 10.5297 64.2474 10.066 63.5668 9.44851C63.4136 9.29403 63.299 9.10281 63.233 8.89155C63.167 8.68028 63.1515 8.45538 63.188 8.23646C63.189 7.80705 63.3534 7.39561 63.6451 7.0925C63.8428 6.87659 64.093 6.72074 64.369 6.64158C64.6451 6.56243 64.9365 6.56295 65.2123 6.64309C65.7832 6.81277 66.2995 7.14032 66.7064 7.59104C67.1134 8.04177 67.3958 8.59889 67.5238 9.20337C67.7328 9.81621 67.7589 9.81621 68.1376 9.65278L68.3727 9.55745V6.16645L68.2029 6.08473C66.9172 5.61385 65.5534 5.41928 64.1936 5.51276C63.0226 5.5437 61.9049 6.02935 61.0593 6.87461C60.6758 7.24897 60.3754 7.70621 60.1791 8.21434C59.9829 8.72246 59.8955 9.26917 59.9231 9.81621C59.9304 10.6526 60.2488 11.4533 60.8112 12.0496C61.4326 12.687 62.1952 13.1547 63.0313 13.4115C65.0556 14.2422 65.6432 14.7733 65.6432 15.7403C65.6519 16.148 65.5274 16.5467 65.2901 16.8709C65.0527 17.1951 64.7167 17.4255 64.3373 17.5243C63.8813 17.6287 63.409 17.6287 62.953 17.5243C62.3559 17.2826 61.8228 16.8958 61.3981 16.396C60.9733 15.8962 60.6691 15.2979 60.5108 14.6508L60.341 14.215H60.1059C59.9936 14.2237 59.8833 14.2513 59.7795 14.2967H59.6489V18.1644H59.8709C60.7532 18.4704 61.6635 18.6804 62.5873 18.7908H63.8932C64.4596 18.8341 65.029 18.7789 65.5779 18.6274C66.2749 18.4933 66.9261 18.1713 67.4668 17.6935C68.0075 17.2157 68.4188 16.5986 68.66 15.9037C68.8159 15.5155 68.8958 15.0988 68.8951 14.678C68.9466 14.0852 68.8475 13.4887 68.6078 12.9485V12.9485ZM56.3056 5.90769C55.523 5.56507 54.6798 5.39886 53.8313 5.41998C52.9827 5.44111 52.1481 5.64908 51.3821 6.03026C50.6621 6.39753 50.0239 6.91816 49.5088 7.55854C48.9936 8.19893 48.613 8.94483 48.3914 9.74811C48.1089 10.6244 47.9893 11.5488 48.0388 12.4718C48.0295 12.974 48.0688 13.4759 48.1563 13.9699C48.3672 15.1844 48.9295 16.3025 49.7676 17.174C50.6057 18.0455 51.6795 18.6287 52.8448 18.8453C53.6036 18.945 54.3714 18.945 55.1302 18.8453C55.9176 18.7006 56.6712 18.4001 57.3504 17.9601C57.9121 17.6317 58.3876 17.1639 58.7347 16.5982C58.7124 16.5095 58.6732 16.4263 58.6193 16.3538C58.5654 16.2812 58.4981 16.2208 58.4212 16.176C58.2722 16.2323 58.1315 16.3103 58.0033 16.4076C57.3538 16.854 56.5867 17.0778 55.8093 17.0476C55.2933 17.084 54.776 17.0002 54.2949 16.8024C53.8138 16.6045 53.3809 16.2975 53.0276 15.9037C52.7543 15.639 52.5287 15.3253 52.3616 14.9776C51.9557 14.131 51.7371 13.2003 51.7216 12.2539V11.7228H58.9567V11.4504C58.9727 11.1783 58.9727 10.9054 58.9567 10.6333C58.9541 9.67172 58.7074 8.72797 58.2418 7.89796C57.7762 7.06796 57.1081 6.38128 56.3056 5.90769V5.90769ZM52.6619 10.6197H51.7478V9.81621C52.0481 7.75981 52.7925 6.53414 53.7067 6.53414C54.6209 6.53414 55.0127 7.74619 55.1824 9.96601V10.5925H54.3989L52.6619 10.6197ZM33.8821 5.45828C33.4309 5.44003 32.9823 5.53827 32.5762 5.74427C31.6935 6.19127 30.9806 6.93471 30.5519 7.85514L30.3821 8.18198V5.45828H30.3168C30.1601 5.45828 25.328 6.46605 25.1713 6.53414C25.0146 6.60224 25.0669 6.61586 25.0669 6.86099C25.0669 7.10612 25.0669 7.14698 25.1713 7.1606L25.6807 7.26954C25.8233 7.27319 25.9633 7.31065 26.09 7.37907C26.2167 7.4475 26.3268 7.5451 26.412 7.66448C26.7385 8.11389 26.8038 8.90376 26.8038 12.2675C26.8683 13.7819 26.8071 15.2992 26.621 16.8025C26.5771 17.0292 26.4669 17.2361 26.3055 17.3946C26.1441 17.5532 25.9394 17.6556 25.7198 17.6877L25.2758 17.783H25.106V18.1644C25.0587 18.2914 25.0587 18.4323 25.106 18.5593H32.4064V18.1644C32.4317 18.034 32.4317 17.8997 32.4064 17.7694C31.9668 17.7516 31.5297 17.6923 31.1004 17.5924C30.8666 17.4649 30.6754 17.2665 30.5518 17.0234C30.4283 16.7803 30.3782 16.5039 30.4083 16.2305C30.3038 15.4406 30.2515 13.1255 30.2777 11.3551C30.3038 9.58469 30.2777 9.47574 30.4213 9.35318C30.8583 9.00377 31.3991 8.82544 31.9493 8.84929C32.4679 8.86108 32.9771 8.99616 33.4381 9.24423C33.5979 9.33677 33.7693 9.40553 33.9474 9.44851C33.9474 9.44851 35.2534 6.15283 35.2534 6.00302C35.0863 5.80051 34.8734 5.64464 34.6339 5.54953C34.3945 5.45441 34.1361 5.42305 33.8821 5.45828V5.45828ZM25.0799 11.1781C25.0343 10.2049 24.7664 9.25716 24.2984 8.41384C23.8305 7.57052 23.176 6.85602 22.3896 6.32987C21.4551 5.80412 20.4153 5.51423 19.3538 5.48349C18.2924 5.45274 17.2388 5.68199 16.2777 6.15283C14.9188 6.90005 13.8928 8.17025 13.4176 9.69364C12.9268 11.3992 12.9268 13.2175 13.4176 14.9231C13.6749 15.8553 14.1559 16.7037 14.815 17.3881C15.6359 18.2234 16.6945 18.7586 17.8318 18.9134C18.5619 18.977 19.2958 18.977 20.0258 18.9134C20.2945 18.8707 20.5605 18.8116 20.8225 18.7363C21.8855 18.4262 22.8418 17.8069 23.5796 16.9507C24.3174 16.0945 24.8061 15.037 24.9885 13.9018C25.1189 13.0005 25.1495 12.0866 25.0799 11.1781V11.1781ZM19.6471 17.9873C18.3411 18.3959 17.3616 17.0749 17.0352 14.2967C16.9153 12.8422 16.9153 11.3797 17.0352 9.92515C17.2963 7.69172 17.9624 6.56138 18.9941 6.56138C19.2023 6.54793 19.4105 6.58666 19.6013 6.67432C19.7922 6.76199 19.9601 6.89604 20.0911 7.06527C20.9661 7.97771 21.3971 9.78897 21.3971 12.5127C21.5057 14.0541 21.2734 15.601 20.718 17.034C20.4727 17.4519 20.0933 17.7656 19.6471 17.9192V17.9873V17.9873ZM43.1545 5.73065C42.786 5.6812 42.4129 5.6812 42.0444 5.73065C41.337 5.73002 40.6378 5.88793 39.9941 6.19368L39.5892 6.37072V3.41551C39.66 2.41818 39.66 1.41676 39.5892 0.419434C39.4325 0.419434 34.4437 1.41358 34.3653 1.45444C34.3268 1.55499 34.3268 1.66712 34.3653 1.76767C34.3653 2.05365 34.3653 2.04004 34.953 2.17622C35.118 2.21481 35.2765 2.27908 35.4232 2.36688C35.6781 2.61686 35.8478 2.94681 35.9064 3.30656C36.0551 4.34296 36.1032 5.39235 36.05 6.43882V18.3959L36.4026 18.4776C36.925 18.6001 38.4008 18.8589 38.884 18.9134C39.8489 18.9934 40.8183 18.9934 41.7832 18.9134C42.8542 18.7993 43.875 18.3826 44.7357 17.7083C45.5964 17.034 46.2644 16.1275 46.6675 15.0866C46.9079 14.4185 47.0744 13.724 47.1638 13.0166C47.2415 12.0583 47.2109 11.0938 47.0724 10.1431C46.9323 9.07729 46.4812 8.08226 45.7803 7.29293C45.0795 6.5036 44.1627 5.95818 43.1545 5.73065V5.73065ZM39.7329 17.7558C39.7329 17.5788 39.6023 11.6138 39.6284 9.23061V7.36487L40.0071 7.26954C40.2626 7.23137 40.5221 7.23137 40.7776 7.26954C41.0602 7.23958 41.3445 7.30652 41.5873 7.4602C42.075 7.8112 42.48 8.273 42.7719 8.81083C43.0637 9.34866 43.2347 9.94851 43.272 10.5652C43.3672 11.5569 43.3672 12.556 43.272 13.5477C43.1939 14.989 42.6613 16.363 41.7571 17.4562C41.5005 17.7104 41.1782 17.8808 40.8299 17.9465C40.5663 17.9943 40.2968 17.9943 40.0332 17.9465C39.7851 17.9465 39.7851 17.8647 39.7851 17.7558H39.7329Z"
          fill="#455A74"/>
</svg>
