<svg width="66" height="22" viewBox="0 0 66 22" fill="none" xmlns="http://www.w3.org/2000/svg">
    <path fill-rule="evenodd" clip-rule="evenodd"
          d="M5.73107 21.2682H7.23966V12.864H5.73107V21.2682ZM11.2611 21.1421H12.6123V15.8396L18.2997 21.2682V12.9901H16.9523V18.202L11.2611 12.864V21.1421ZM21.3843 19.1067C22.1197 19.7042 23.0025 20.0496 23.9488 20.0496C24.8706 20.0496 25.5172 19.7186 25.5172 18.9879C25.5172 18.351 25.1048 18.1015 24.3826 17.8225L23.2134 17.399C22.1355 16.9998 21.3157 16.4167 21.3157 15.0767C21.3157 13.6434 22.5567 12.864 24.0407 12.864C24.9499 12.864 25.7785 13.1024 26.4258 13.5245V14.946C25.7527 14.4273 25.016 14.0701 24.0697 14.0701C23.2549 14.0701 22.6461 14.3873 22.6461 15.0484C22.6461 15.6459 23.0283 15.8849 23.7013 16.1252L25.0041 16.6019C26.2665 17.0648 26.8457 17.7824 26.8457 18.9629C26.8457 20.4481 25.5928 21.2682 23.9488 21.2682C22.8683 21.2682 21.9497 20.953 21.3843 20.5551V19.1067ZM30.3654 21.2682H31.8733V12.864H30.3654V21.2682ZM38.9478 19.9964C40.6478 19.9964 41.5564 18.8592 41.5564 17.0641C41.5564 15.2559 40.6472 14.1227 38.9478 14.1227H37.2667V19.9964H38.9478V19.9964ZM35.8941 12.864H38.9982C41.3877 12.864 42.9328 14.5054 42.9328 17.0641C42.9328 19.6247 41.3877 21.2682 38.9982 21.2682H35.8941V12.864ZM50.4745 12.864V14.1227H46.8245V16.1449H50.098V17.3891H46.8239V19.9964H50.4745V21.2682H45.4469V12.864H50.4745ZM55.8276 16.6695H57.3242C58.2101 16.6695 58.7094 16.1626 58.7094 15.3833C58.7094 14.6039 58.2101 14.0964 57.3242 14.0964H55.8276V16.6702V16.6695ZM55.8276 17.8579V21.2682H54.4959V12.864H57.3494C58.9764 12.864 60.0291 13.7379 60.0291 15.3833C60.0291 16.7903 59.4448 17.5986 58.2 17.806L61.0315 21.2682H59.5166L56.7752 17.8586H55.8282L55.8276 17.8579ZM5.20407 4.58463C5.79403 4.35942 6.25366 3.68381 6.25366 2.75476C6.25366 1.20656 5.20407 0.404228 3.52484 0.404228H0.704102V9.0467H3.78677C5.46599 9.0467 6.51559 8.1879 6.51559 6.56945C6.51559 5.65419 5.96466 4.85185 5.20407 4.58463ZM2.02884 4.03573V1.67141H3.51225C4.44411 1.67141 4.94214 2.02334 4.94214 2.83946C4.94214 3.65558 4.44348 4.03573 3.51225 4.03573H2.02884ZM2.02884 5.24645H3.76033C4.67959 5.24645 5.17762 5.72444 5.17762 6.51298C5.17762 7.28708 4.67896 7.78017 3.76096 7.78017H2.02947V5.2458L2.02884 5.24645ZM12.6702 9.18721C14.5988 9.18721 15.8977 7.97649 15.8977 5.61217V0.404228H14.5333V5.44277C14.5333 7.1039 13.8772 7.87866 12.6702 7.87866C11.4632 7.87866 10.8078 7.1039 10.8078 5.44277V0.404228H9.44337V5.59772C9.44337 7.97649 10.7549 9.18721 12.6702 9.18721V9.18721ZM19.1101 8.42689C19.6742 8.84973 20.5929 9.18721 21.6683 9.18721C23.3085 9.18721 24.5545 8.31396 24.5545 6.73819C24.5545 5.48545 23.9778 4.72514 22.7179 4.23271L21.4196 3.72583C20.7503 3.47305 20.37 3.21961 20.37 2.58602C20.37 1.88217 20.9732 1.5447 21.7866 1.5447C22.7311 1.5447 23.4659 1.92419 24.1352 2.47375V0.966911C23.4923 0.517159 22.6656 0.263722 21.7602 0.263722C20.278 0.263722 19.0446 1.09429 19.0446 2.61425C19.0446 4.03573 19.8581 4.65488 20.9335 5.07706L22.1015 5.52747C22.823 5.82293 23.2298 6.09081 23.2298 6.76642C23.2298 7.54052 22.5869 7.89244 21.6683 7.89244C20.7238 7.89244 19.8449 7.52608 19.1101 6.89314V8.42689V8.42689ZM29.4297 0.404228H28.0659V9.04604H29.4297V0.404228ZM33.3221 9.03554H34.6368V3.4133L40.17 9.16948V0.391097H38.8591V5.91747L33.3221 0.257812V9.03554V9.03554ZM48.6958 0.406198V1.7003H45.1535V3.78033H48.33V5.05999H45.1535V7.74078H48.6958V9.04867H43.8161V0.406198H48.6958ZM51.8723 8.42099C52.4364 8.84382 53.3544 9.1813 54.4304 9.1813C56.07 9.1813 57.3167 8.30871 57.3167 6.73228C57.3167 5.47954 56.7393 4.71988 55.48 4.2268L54.1811 3.72058C53.5118 3.46714 53.1315 3.2137 53.1315 2.58011C53.1315 1.87627 53.7347 1.53879 54.5482 1.53879C55.4926 1.53879 56.2274 1.91894 56.8967 2.46784V0.961659C56.2539 0.51125 55.4272 0.257812 54.5217 0.257812C53.0396 0.257812 51.8062 1.08838 51.8062 2.60834C51.8062 4.02982 52.6196 4.64897 53.695 5.07115L54.863 5.52156C55.5846 5.81702 55.9913 6.0849 55.9913 6.76051C55.9913 7.53461 55.3491 7.88654 54.4298 7.88654C53.4854 7.88654 52.6064 7.52082 51.8723 6.88723V8.42099V8.42099ZM60.1116 8.42099C60.6757 8.84382 61.5944 9.1813 62.6698 9.1813C64.31 9.1813 65.556 8.30871 65.556 6.73228C65.556 5.47954 64.9786 4.71988 63.7194 4.2268L62.4205 3.72058C61.7518 3.46714 61.3709 3.2137 61.3709 2.58011C61.3709 1.87627 61.9747 1.53879 62.7875 1.53879C63.732 1.53879 64.4674 1.91894 65.136 2.46784V0.961659C64.4938 0.51125 63.6671 0.257812 62.7617 0.257812C61.2789 0.257812 60.0461 1.08838 60.0461 2.60834C60.0461 4.02982 60.8596 4.64897 61.935 5.07115L63.103 5.52156C63.8245 5.81702 64.2313 6.0849 64.2313 6.76051C64.2313 7.53461 63.5884 7.88654 62.6698 7.88654C61.7253 7.88654 60.8464 7.52082 60.1116 6.88723V8.42099V8.42099Z"
          fill="#455A74"/>
</svg>
