<svg width="66" height="18" viewBox="0 0 66 18" fill="none" xmlns="http://www.w3.org/2000/svg">
    <path d="M29.085 2.43234C27.9889 1.25363 26.5013 0.580078 24.9355 0.580078H16.3625V17.4188H22.2344V6.89459H24.1134C24.6223 6.89459 25.1312 7.10508 25.4835 7.52605L27.5191 9.71508C27.8714 10.0939 28.1063 10.6412 28.1063 11.1885V17.4188H33.9782V10.3044C33.9782 8.62056 33.3519 7.02088 32.2558 5.84218L29.085 2.43234V2.43234ZM59.4231 0.580078V6.8104C59.4231 7.35766 59.2274 7.90492 58.8359 8.28379L56.8003 10.4728C56.448 10.8517 55.9391 11.1043 55.4302 11.1043H52.6117C53.1989 10.0939 53.5512 8.91524 53.5512 7.69443V0.580078H47.6793V6.8104C47.6793 7.35766 47.4836 7.90492 47.0921 8.28379L45.0565 10.4728C44.7042 10.8517 44.1953 11.1043 43.6864 11.1043H41.8074V0.580078H35.9355V17.4188H44.5085C46.0743 17.4188 47.5619 16.7452 48.658 15.5665L50.6153 13.4617V17.4188H56.2523C57.8181 17.4188 59.3057 16.7452 60.4018 15.5665L63.5726 12.1567C64.6687 10.978 65.295 9.3783 65.295 7.69443V0.580078H59.4231ZM0.704102 6.89459H4.6187V17.4188H10.4906V6.89459H14.4052V0.580078H0.704102V6.89459Z"
          fill="#455A74"/>
</svg>
