<svg width="75" height="16" viewBox="0 0 75 16" fill="none" xmlns="http://www.w3.org/2000/svg">
    <path d="M26.3888 11.4935V13.2795H19.328V11.4935H21.8642V4.34964H19.328V2.56368H26.3888V4.34964H23.8526V11.4935H26.3888V11.4935ZM14.3977 2.56368H12.4499L11.0499 11.047H11.0296L9.40644 3.18026C9.30499 2.64873 9.14267 2.52116 8.65573 2.52116H7.58038C7.11372 2.52116 6.93111 2.64873 6.82967 3.18026L5.2065 11.047H5.16592L3.78624 2.56368H1.69641L3.70508 12.7479C3.78624 13.1944 3.94855 13.3007 4.41521 13.3007H5.7949C6.26156 13.3007 6.42388 13.1944 6.50503 12.7267L8.02675 5.34893H8.06733L9.58904 12.7267C9.69049 13.1944 9.83252 13.3007 10.2992 13.3007H11.6586C12.1455 13.3007 12.2876 13.1944 12.3687 12.7479L14.3977 2.56368ZM15.4527 15.682H0.641357V0.161133H15.4527V15.682ZM39.8813 10.5367C39.8888 11.454 39.9498 12.37 40.0639 13.2795H42.0929C42.032 12.7054 41.9711 11.7486 41.9306 10.3879C41.89 9.02717 41.403 8.55942 40.348 8.3468V8.30428C41.5248 8.11292 42.032 7.5176 42.032 5.62533C42.032 4.05198 41.7885 3.47792 41.3828 3.05269C40.977 2.62746 40.5509 2.58494 39.7596 2.58494H33.5307V13.2795H35.6408V9.11221H38.5625C39.1712 9.11221 39.4147 9.15474 39.577 9.32483C39.7393 9.49492 39.861 9.68627 39.8813 10.5367V10.5367ZM35.6408 7.36877V4.39217H38.9886C39.4552 4.39217 39.5973 4.43469 39.6784 4.51974C39.7596 4.60478 39.9625 4.90244 39.9625 5.83795C39.9625 6.77345 39.8205 7.07111 39.6581 7.21994C39.4958 7.36877 39.435 7.36877 38.9683 7.36877H35.6408V7.36877ZM45.0754 15.682H30.2641V0.161133H45.0754V15.682ZM63.1534 2.56368V13.2795H68.1852C69.6258 13.2795 70.4171 13.0668 71.0461 12.4928C71.675 11.9187 72.1214 10.5793 72.1214 7.94283C72.1214 5.30641 71.7765 4.05198 71.0461 3.39288C70.3156 2.73377 69.6461 2.6062 68.1852 2.6062H63.1534V2.56368ZM70.0316 7.92157C70.0316 10.2178 69.849 10.8131 69.4635 11.1321C69.078 11.451 68.7939 11.451 68.0432 11.451H65.2635V4.39217H68.0432C68.8142 4.39217 69.1388 4.43469 69.4635 4.71109C69.7881 4.98749 70.0316 5.62533 70.0316 7.94283V7.92157ZM74.6982 15.682H59.8868V0.161133H74.6982V15.682ZM47.7942 4.34964V2.56368H56.4985V6.00804H54.6724V4.34964H51.142V6.90102H53.942V8.6232H51.142V11.4935H54.7536V9.62249H56.5999V13.2795H47.7942V11.4935H49.1739V4.34964H47.7942Z"
          fill="#455A74"/>
</svg>
