<svg width="1440" height="106" viewBox="0 0 1440 106" fill="none" xmlns="http://www.w3.org/2000/svg">
    <rect x="1413" y="54" width="27" height="27" transform="rotate(-90 1413 54)" fill="white"/>
    <rect x="98" y="78.9999" width="27" height="27" transform="rotate(-180 98 78.9999)" fill="white"/>
    <rect x="98" y="78.9999" width="27" height="27" transform="rotate(-180 98 78.9999)" fill="white"/>
    <rect x="551" y="26.9999" width="480" height="27" transform="rotate(-180 551 26.9999)" fill="white"/>
    <rect x="71" y="106" width="27" height="27" transform="rotate(-180 71 106)" fill="white"/>
    <rect x="916" y="27" width="27" height="27" transform="rotate(-180 916 27)" fill="white"/>
    <rect x="1386" y="54" width="54" height="27" transform="rotate(-90 1386 54)" fill="white"/>
    <rect x="199" y="52.9999" width="155" height="27" transform="rotate(-180 199 52.9999)" fill="white"/>
    <rect x="44" y="25.9999" width="44" height="26" transform="rotate(-180 44 25.9999)" fill="white"/>
    <rect x="1332" y="27" width="71" height="27" transform="rotate(-180 1332 27)" fill="white"/>
</svg>
