<svg width="276" height="320" viewBox="0 0 276 320" fill="none" xmlns="http://www.w3.org/2000/svg">
    <path d="M0 0H276V320H0V0Z" fill="#D9DEE3"/>
    <rect x="232" y="44" width="22" height="22" fill="#EAEEF2"/>
    <path d="M254 22H276V44H254V22Z" fill="#EAEEF2"/>
    <path d="M40 319.815C40 319.815 57.5401 221.725 66.8301 215.799C76.1202 209.872 111.2 195.056 133.894 195.472C156.588 195.889 168.974 208.113 168.974 208.113C168.974 208.113 218.498 238.348 224.183 248.349C229.868 258.35 236.038 319.815 236.038 319.815H40Z"
          fill="#040F1F"/>
    <path d="M142.399 174.521L146.466 200.496C146.466 200.496 128.487 223.948 107.388 233.254C107.388 233.254 100.039 219.503 97.913 208.83C95.7869 198.158 142.399 174.521 142.399 174.521Z"
          fill="#E7F1FB"/>
    <path d="M106 197.185C100.754 201.561 97.2879 205.728 97.9119 208.807C100.038 219.456 107.387 233.231 107.387 233.231C109.698 232.212 111.939 231.055 114.112 229.758C111.708 224.619 107.04 224.387 117.509 219.48C131.19 213.044 141.104 187.069 141.104 187.069L106 197.185Z"
          fill="#1573FF"/>
    <path d="M142.675 148.662C142.675 148.662 147.921 145.374 150.116 147.319C152.312 149.264 154.322 155.375 153.56 157.32C152.797 159.265 151.364 164.173 150.972 167.391C150.579 170.609 148.661 172.947 147.089 173.85C145.518 174.753 141.797 175.146 140.78 173.85C139.763 172.553 142.675 148.662 142.675 148.662Z"
          fill="#E7F1FB"/>
    <path d="M72.5387 160.191C72.5387 160.191 67.6395 158.478 67.1311 162.228C66.6226 165.978 69.7193 171.164 75.5198 177.23C81.3203 183.295 72.5387 160.191 72.5387 160.191Z"
          fill="#9FB1BF"/>
    <path d="M71.4758 162.228C71.4758 162.228 68.0325 161.186 69.2342 166.21C69.2342 166.21 71.1985 164.242 71.9842 166.21C72.7699 168.177 71.4758 162.228 71.4758 162.228Z"
          fill="#304D60"/>
    <path d="M143.115 149.889C143.115 149.889 143.115 181.096 140.411 190.194C137.707 199.292 124.743 212.28 117.764 215.197C110.785 218.114 102.488 216.933 97.6352 214.039C92.7822 211.145 83.5153 198.528 81.3892 192.139C79.2632 185.749 73.2547 176.836 73.4627 171.604C73.6707 166.372 62.4394 131.692 68.0551 123.728C73.6707 115.764 119.89 99.3043 133.062 108.611C146.235 117.917 143.115 149.889 143.115 149.889Z"
          fill="#E7F1FB"/>
    <path d="M103.412 201.399C103.412 201.399 108.958 199.339 113.511 200.496C118.064 201.654 110.622 204.826 107.248 204.247C103.874 203.668 101.933 203.275 103.412 201.399Z"
          fill="#BFCFDD"/>
    <path d="M103.413 180.795C103.413 180.795 111.062 176.558 112.749 178.248C114.436 179.938 112.749 181.999 112.749 181.999L105.354 183.295L103.413 180.795Z"
          fill="#BFCFDD"/>
    <path d="M90.4254 154.241L89.8477 153.847C89.917 153.732 91.6503 151.069 88.3687 148.314C86.7741 146.972 86.6586 142.11 88.0221 133.452C89.0158 127.178 90.4717 121.205 90.4717 121.135L91.1418 121.298C91.1187 121.367 89.6859 127.317 88.6922 133.567C86.9821 144.425 88.022 147.134 88.8078 147.782C92.5746 150.954 90.4485 154.218 90.4254 154.241Z"
          fill="#BFCFDD"/>
    <path d="M133.894 151.162C133.894 151.162 129.827 156.371 126.938 157.551C126.938 157.551 114.944 162.645 111.847 161.649C108.751 160.654 113.511 158.408 113.511 158.408L112.217 155.144L127.77 149.727L133.894 151.162Z"
          fill="#9FB1BF"/>
    <path d="M109.536 119.978C109.536 119.978 108.242 144.935 109.536 148.037C110.83 151.139 129.087 148.917 129.087 148.917C129.087 148.917 129.572 111.459 109.536 119.978Z"
          fill="white"/>
    <path d="M90.1248 154.056L110.831 151.162L112.217 155.121C112.217 155.121 111.247 156.463 107.226 157.274C103.205 158.084 97.1732 158.663 96.3181 159.149C95.4631 159.635 90.3097 156.047 90.3097 156.047L90.1248 154.056Z"
          fill="#BFCFDD"/>
    <path d="M140.549 141.439C140.549 141.439 136.343 175.887 133.893 182.948C131.444 190.009 133.778 195.241 131.836 200.195C131.028 202.232 130.011 204.594 129.11 206.677C134.194 201.607 138.908 195.31 140.41 190.217C143.114 181.119 143.114 149.912 143.114 149.912C143.114 149.912 143.391 147.18 143.414 143.082L140.549 141.439Z"
          fill="#BFCFDD"/>
    <path d="M107.873 214.062C101.402 211.817 97.381 205.265 97.381 205.265C104.268 203.552 112.726 199.061 112.726 199.061C112.726 199.061 103.69 197.255 98.5365 196.861C93.3831 196.468 93.1289 200.241 93.1289 200.241C93.1289 200.241 91.1877 183.828 84.7401 181.489C78.2926 179.151 74.9417 164.474 74.9417 164.474C74.9417 164.474 91.2339 158.987 91.7423 154.334C92.2507 149.68 84.4166 154.311 84.7401 146.694C85.0637 139.077 87.9986 118.288 87.9986 118.288L83.5847 114.584C75.843 117.756 69.8345 121.182 68.0551 123.752C62.4394 131.692 73.6707 166.372 73.4627 171.627C73.2547 176.882 79.2632 185.772 81.3893 192.162C83.5153 198.551 92.8054 211.145 97.6352 214.062C102.465 216.979 110.785 218.137 117.764 215.22C123.333 212.882 132.762 204.084 137.684 196.005C127.331 210.891 114.367 216.308 107.873 214.062Z"
          fill="#9FB1BF"/>
    <path d="M81.1579 192.162C83.284 198.552 92.574 211.145 97.4039 214.062C99.9228 215.567 103.366 216.609 107.087 216.864C94.0068 212.488 89.5929 203.02 87.7672 194.454C85.9416 185.888 79.5402 185.749 77.2293 180.911C74.9183 176.072 73.786 161.071 73.786 161.071C73.786 161.071 76.0045 157.39 74.5024 148.037C73.0002 138.684 77.2293 117.709 77.2293 117.709L77.0444 117.385C72.4456 119.677 69.0716 121.923 67.8006 123.729C62.185 131.669 73.4162 166.372 73.2313 171.604C73.0465 176.836 79.0087 185.749 81.1579 192.162Z"
          fill="#304D60"/>
    <path d="M141.289 155.144L138.377 142.365C138.377 142.365 132.576 136.346 133.547 129.771C134.518 123.196 127.538 114.839 127.538 114.839C127.538 114.839 106.255 114.839 99.6684 122.594C93.0822 130.35 75.4959 119.677 72.0063 124.724C68.5168 129.771 71.2206 147.782 71.2206 147.782C71.2206 147.782 70.5042 155.491 71.1975 159.033C71.8908 162.575 72.7458 168.224 72.7458 168.224C72.7458 168.224 65.4432 156.811 66.3676 154.982C67.292 153.153 63.5251 142.828 64.4726 139.471C65.4201 136.114 53.2183 125.696 62.8781 121.043C62.8781 121.043 62.6932 95.2763 86.6809 86.1549C110.669 77.0336 131.952 89.4655 141.242 100.902C141.242 100.902 138.146 103.217 142.005 106.319C145.864 109.421 145.287 118.334 145.287 118.334L143.16 118.913C143.16 118.913 147.043 131.114 147.413 135.582C147.782 140.05 147.413 146.81 147.413 146.81C147.413 146.81 142.051 147.574 141.289 155.144Z"
          fill="#040F1F"/>
    <path d="M119.797 319.907L119.127 319.699C119.451 318.657 150.487 215.775 153.375 207.719C154.415 204.825 154.485 202.487 153.606 200.797C152.705 199.061 151.064 198.598 151.064 198.598L151.249 197.926C151.319 197.949 153.167 198.459 154.23 200.45C155.224 202.348 155.155 204.871 154.045 207.951C151.157 216.007 120.121 318.865 119.797 319.907Z"
          fill="#1573FF"/>
    <path d="M132.114 320L131.536 319.606L162.942 273.375L157.142 265.364L165.923 263.767L168.627 208.09L169.32 208.113L166.594 264.346L158.367 265.851L163.797 273.351L163.659 273.56L132.114 320Z"
          fill="#1573FF"/>
    <path d="M80.327 319.838L79.6337 319.791L82.7303 248.372L92.4825 241.982L84.2094 237.097L91.5813 209.363L92.2515 209.548L85.0182 236.75L93.7998 241.959L83.4236 248.742L80.327 319.838Z"
          fill="#1573FF"/>
    <path d="M91.1646 319.815L90.4713 319.792C92.3894 270.249 103.528 224.249 103.644 223.786L104.314 223.948C104.198 224.411 93.0596 270.365 91.1646 319.815Z"
          fill="#1573FF"/>
    <path d="M124.835 255.248L107.48 233.903L98.1434 254.9L97.5194 254.622L107.295 232.583L124.904 254.252L144.293 237.028L144.755 237.537L124.835 255.248Z"
          fill="#1573FF"/>
    <path d="M105.469 319.861L104.776 319.768L106.324 308.216C106.948 303.516 106.624 299.859 106.324 296.641C105.885 292.011 105.515 288.029 108.311 282.889C112.864 274.532 114.643 243.626 114.666 243.325L115.36 243.371C115.29 244.644 113.557 274.74 108.935 283.236C106.255 288.168 106.601 291.895 107.04 296.594C107.341 299.859 107.687 303.54 107.04 308.332L105.469 319.861Z"
          fill="#1573FF"/>
    <path d="M99.5766 159.519C99.5766 159.519 96.3182 156.556 90.2866 156.047C84.255 155.537 74.0406 161.07 74.0406 161.07C74.0406 161.07 74.2948 165.978 78.2465 168.062C82.1982 170.146 96.295 166.164 96.295 166.164L97.335 176.767C97.335 176.767 93.6374 180.077 95.0933 183.318C95.9484 185.24 105.331 183.318 105.331 183.318C105.331 183.318 107.642 181.073 104.73 180.911C101.818 180.749 99.0682 180.61 99.5766 177.415C100.085 174.22 99.9232 175.563 100.432 171.766C100.94 167.969 99.5766 159.519 99.5766 159.519Z"
          fill="#9FB1BF"/>
    <path d="M105.354 183.295C105.354 183.295 108.289 187.948 107.85 189.592C107.411 191.236 105.354 191.305 105.354 191.305C105.354 191.305 106.625 186.652 105.354 183.295Z"
          fill="#9FB1BF"/>
    <path d="M96.3177 196.051C96.3177 196.051 100.616 199.64 102.673 200.103C104.73 200.566 110.923 199.779 112.725 199.061C114.528 198.343 119.173 192.857 119.173 192.857L108.797 191.769L104.614 193.644L101.009 193.32L96.3177 196.051Z"
          fill="#9FB1BF"/>
    <path d="M102.096 198.227C98.9527 197.255 101.287 193.805 101.61 193.319L101.449 193.296L100.617 193.481L96.2951 196.005C96.2951 196.005 100.594 199.593 102.65 200.056C104.707 200.519 110.9 199.732 112.703 199.014C112.033 197.463 105.446 199.292 102.096 198.227Z"
          fill="#304D60"/>
    <path d="M96.3177 196.051C96.3177 196.051 101.564 193.643 106.116 194.94C110.299 193.389 114.736 192.671 119.196 192.879C119.196 192.879 108.288 188.411 106.625 191.977C106.625 191.953 101.309 189.939 96.3177 196.051Z"
          fill="#304D60"/>
    <path d="M96.4562 196.375L96.1557 195.75C96.3637 195.658 101.494 193.342 106.093 194.569C110.299 193.018 114.713 192.324 119.196 192.509L119.173 193.204C114.736 193.018 110.391 193.69 106.231 195.241L106.116 195.287L106 195.264C101.633 194.014 96.5024 196.352 96.4562 196.375Z"
          fill="#040F1F"/>
    <path d="M110.854 151.162L112.24 155.121C112.24 155.121 121.53 151.255 127.469 151.671C133.409 152.088 133.825 151.764 133.917 151.162C134.009 150.56 128.163 147.805 122.385 148.06C116.608 148.314 110.854 151.162 110.854 151.162Z"
          fill="#040F1F"/>
    <path d="M91.766 154.357L91.2576 159.01C91.2576 159.01 84.8101 156.602 79.8184 159.01C74.8268 161.418 74.0641 161.857 74.0641 161.07C74.0641 160.283 75.4507 157.459 78.2701 155.908C81.0894 154.357 89.8711 153.5 91.766 154.357Z"
          fill="#040F1F"/>
    <path d="M128.602 156.788C113.65 151.092 112.102 158.848 112.102 158.848C112.102 158.848 118.341 160.793 122.385 159.357C126.429 157.922 128.602 156.788 128.602 156.788Z"
          fill="white"/>
    <path d="M95.7863 161.557C95.7863 161.557 92.7589 158.2 88.2988 159.427C83.8386 160.654 80.2336 164.335 80.2336 164.335C80.2336 164.335 84.9941 164.798 89.0614 164.08C91.4417 163.687 93.7295 162.83 95.7863 161.557Z"
          fill="white"/>
    <path d="M91.2803 160.538C91.2803 160.029 91.1647 159.542 90.9336 159.079C90.0555 158.987 89.1542 159.079 88.2991 159.311C87.0512 159.658 85.8726 160.168 84.7634 160.816C84.9251 162.621 86.5197 163.941 88.3222 163.779C89.9861 163.617 91.2803 162.228 91.2803 160.538Z"
          fill="#1573FF"/>
    <path d="M122.917 155.098C120.167 154.565 118.11 154.611 116.561 154.982C116.099 156.718 117.139 158.524 118.872 158.987C120.606 159.45 122.408 158.408 122.87 156.672C123.032 156.163 123.032 155.607 122.917 155.098Z"
          fill="#1573FF"/>
    <path d="M87.9981 162.251C88.7511 162.251 89.3615 161.64 89.3615 160.885C89.3615 160.131 88.7511 159.519 87.9981 159.519C87.2451 159.519 86.6346 160.131 86.6346 160.885C86.6346 161.64 87.2451 162.251 87.9981 162.251Z"
          fill="#040F1F"/>
    <path d="M119.728 157.436C120.481 157.436 121.091 156.824 121.091 156.07C121.091 155.315 120.481 154.704 119.728 154.704C118.975 154.704 118.364 155.315 118.364 156.07C118.364 156.824 118.975 157.436 119.728 157.436Z"
          fill="#040F1F"/>
    <path d="M80.4881 164.59L80.0028 164.103C83.7466 160.26 87.3285 158.431 90.6563 158.64C94.1458 158.848 95.9946 161.256 96.0639 161.348L95.5093 161.765C95.4862 161.742 93.753 159.519 90.587 159.311C87.4672 159.149 84.0701 160.909 80.4881 164.59Z"
          fill="#040F1F"/>
    <path d="M112.425 158.918L111.755 158.779C111.778 158.686 112.217 156.672 114.574 155.376C117.671 153.686 122.432 154.033 128.717 156.464L128.463 157.112C124.28 155.514 118.549 154.01 114.921 155.977C112.841 157.112 112.448 158.848 112.425 158.918Z"
          fill="#040F1F"/>
    <path d="M110.693 172.784C110.693 172.784 118.342 177.253 112.749 181.998C112.749 181.998 115.338 177.623 110.693 172.784Z"
          fill="#9FB1BF"/>
    <path d="M107.225 181.674C107.225 181.674 112.563 178.063 111.778 181.674C111.778 181.674 109.813 180.794 107.225 181.674Z"
          fill="#040F1F"/>
    <path d="M104.037 182.948C104.037 182.948 100.339 181.142 98.3518 182.948C96.3644 184.754 104.037 182.948 104.037 182.948Z"
          fill="#040F1F"/>
    <path d="M119.89 162.344C118.873 162.344 117.948 162.274 117.116 162.158C114.551 161.834 112.702 161.232 112.61 161.209L112.841 160.561C112.91 160.584 120.259 163.015 125.598 160.584L125.875 161.209C123.98 162.066 121.831 162.344 119.89 162.344Z"
          fill="#BFCFDD"/>
    <path d="M81.4358 168.988L81.3665 168.293C86.2426 167.807 89.8477 166.534 91.9969 165.562C94.3309 164.497 95.5557 163.548 95.5557 163.524L95.9948 164.057C95.7868 164.242 90.9801 168.039 81.4358 168.988Z"
          fill="#BFCFDD"/>
    <path d="M102.765 159.52L103.666 172.577C103.666 172.577 101.216 177.485 102.765 178.897C104.313 180.309 107.017 177.346 106.763 173.85C106.508 170.354 105.861 156.811 102.765 159.52Z"
          fill="white"/>
    <path d="M117.324 167.113C117.324 167.113 127.007 169.242 131.837 161.996C131.837 161.996 130.867 171.812 127.585 177.229C124.304 182.647 117.324 167.113 117.324 167.113Z"
          fill="white"/>
    <path d="M110.206 217.466L107.063 217.28C103.366 217.049 99.8763 216.053 97.2187 214.456C92.3426 211.516 83.0064 198.922 80.811 192.37C80.0252 189.986 78.6618 187.185 77.3214 184.476C75.8655 181.49 74.3634 178.41 73.5315 175.725C68.586 170.169 66.2982 165.654 66.7604 162.298C66.8759 161.464 67.1995 160.793 67.731 160.33C65.7436 156.417 65.836 155.352 66.0671 154.889C66.46 154.149 65.8129 151.278 65.212 148.5C64.4263 144.958 63.6175 141.3 64.149 139.448C64.4263 138.499 63.294 136.6 62.1154 134.609C60.3128 131.577 58.0712 127.78 59.0187 124.631C59.4809 123.104 60.6595 121.853 62.5313 120.904C62.5545 119.7 62.8087 113.751 65.4663 106.968C68.1932 99.976 74.063 90.6694 86.5652 85.9004L86.8194 86.5486C74.5483 91.2019 68.794 100.346 66.1364 107.176C63.2246 114.607 63.2477 121.043 63.2477 121.089V121.321L63.0398 121.414C61.2141 122.293 60.1048 123.404 59.6889 124.817C58.8338 127.664 60.983 131.322 62.7162 134.239C64.0797 136.554 65.1658 138.383 64.8192 139.633C64.3339 141.323 65.1658 145.05 65.8822 148.361C66.6911 152.019 67.1532 154.287 66.6679 155.214C66.5755 155.399 66.4137 156.302 68.4705 160.26L68.6091 160.538L68.3549 160.7C67.8465 161.047 67.523 161.603 67.4306 162.367C66.9915 165.516 69.2331 169.868 74.0861 175.308L74.1323 175.355L74.1554 175.424C74.9643 178.063 76.4664 181.142 77.9223 184.129C79.2626 186.86 80.6261 189.685 81.4349 192.116C83.5379 198.436 92.8741 211.007 97.5423 213.831C99.7377 215.151 102.673 216.077 105.746 216.447L107.017 216.54C107.664 216.586 108.288 216.609 108.889 216.609V217.072L110.206 217.466Z"
          fill="#040F1F"/>
    <path d="M121.808 196.769C121.623 194.06 120.953 192.625 120.444 191.861C119.89 191.074 119.381 190.889 119.381 190.889L119.589 190.217C119.682 190.24 122.108 191.028 122.524 196.699L121.808 196.769Z"
          fill="#BFCFDD"/>
    <path d="M79.9792 173.225C79.9792 173.225 90.0319 175.818 93.1285 174.521C96.2252 173.225 93.3134 183.828 88.576 182.022C83.8385 180.216 80.1179 176.582 79.9792 173.225Z"
          fill="white"/>
    <path d="M102.672 208.9C102.672 208.9 111.107 204.848 114.689 207.65C118.271 210.451 112.309 214.826 109.074 214.41C105.838 213.993 97.5421 210.706 102.672 208.9Z"
          fill="white"/>
    <path d="M141.959 154.681C141.959 154.681 146.442 148.036 149.538 151.579C152.635 155.121 150.578 161.418 150.578 161.418C150.578 161.418 150.763 152.782 148.683 152.782C146.604 152.782 144.986 159.195 141.543 159.496C138.099 159.797 141.959 154.681 141.959 154.681Z"
          fill="#BFCFDD"/>
    <path d="M141.889 161.441C141.889 161.441 146.418 155.838 147.643 157.297C148.868 158.755 146.95 162.737 147.643 164.497C148.336 166.256 145.494 168.849 143.437 168.201C141.38 167.552 141.889 161.441 141.889 161.441Z"
          fill="#BFCFDD"/>
    <path d="M109.283 149.865C108.867 149.865 108.497 149.75 108.15 149.495C106.255 148.129 105.862 142.712 106.995 133.405C107.827 126.553 109.19 119.978 109.213 119.908L109.884 120.047C108.358 127.27 105.169 146.509 108.543 148.939C109.075 149.31 109.745 149.24 110.623 148.708L110.97 149.31C110.369 149.68 109.791 149.865 109.283 149.865Z"
          fill="white"/>
    <path d="M134.888 98.5405L129.734 100.74L128.186 97.4987L124.581 97.7534V95.1605C121.484 96.4569 110.646 108.333 110.646 108.333L115.545 91.8036C109.352 93.8641 105.215 100.717 105.215 100.717L108.566 91.0165L98.7677 100.717L101.079 89.9979C98.2362 91.8036 91.0261 99.5591 91.0261 99.5591L92.3202 93.1001C91.0492 94.9058 87.1899 102.916 87.1899 102.916C87.4441 99.8138 92.3433 88.1921 92.3433 88.1921C90.2866 89.2339 84.3474 97.2441 84.3474 97.2441L85.3873 89.7432C79.7024 92.5908 75.8431 113.264 75.8431 113.264L79.4482 105.254L79.1709 114.815L83.0302 106.944L84.5785 115.603C84.8327 113.01 92.066 103.448 92.066 103.448L92.3202 116.876C92.8286 113.519 96.9652 108.079 96.9652 108.079L96.1795 115.834L99.7846 108.866L102.096 115.07C101.841 113.01 105.331 106.921 105.331 106.921L103.829 119.376C109.375 116.459 117.486 115.394 122.64 115.024L125.066 111.968C127.909 105 134.888 98.5405 134.888 98.5405Z"
          fill="#1573FF"/>
    <path d="M147.481 146.81C147.481 146.81 147.874 140.027 147.481 135.582C147.088 131.137 143.229 118.913 143.229 118.913C140.086 113.843 127.538 114.815 127.538 114.815C127.538 114.815 134.494 123.15 133.546 129.748C132.599 136.346 138.376 142.342 138.376 142.342L141.288 155.121C142.05 147.574 147.481 146.81 147.481 146.81Z"
          fill="#1573FF"/>
</svg>
