<svg width="276" height="320" viewBox="0 0 276 320" fill="none" xmlns="http://www.w3.org/2000/svg">
    <path d="M0 0H276V320H0V0Z" fill="#D9DEE3"/>
    <rect y="22" width="22" height="22" fill="#EAEEF2"/>
    <rect x="24" width="22" height="22" fill="#EAEEF2"/>
    <rect x="254" y="22" width="22" height="22" fill="#EAEEF2"/>
    <path d="M22 319.349C22 319.349 32.9778 272.658 52.7762 252.836C52.7762 252.836 54.1184 246.412 58.3849 244.015C62.6514 241.618 89.9521 234.116 89.9521 234.116C89.9521 234.116 90.2157 231.168 99.0603 228.771C99.0603 228.771 108.696 208.709 112.962 204.969C112.962 204.969 163.801 191.858 171.015 193.728C178.23 195.598 174.754 202.549 174.754 202.549C174.754 202.549 197.765 217.793 211.403 219.662C225.041 221.532 247.021 229.034 251.575 261.153C256.129 293.271 253.181 319.373 253.181 319.373L22 319.349Z"
          fill="#040F1F"/>
    <path d="M110.469 187.832C110.469 187.832 114.089 209.308 114.089 212.112C114.089 214.917 113.082 229.178 113.082 229.178L123.916 244.638C123.916 244.638 138.969 234.403 143.379 231.192C147.789 227.98 156.634 214.126 162.242 209.524C167.851 204.922 170.08 201.087 170.08 201.087C170.08 201.087 163.465 195.861 163.465 171.797L110.469 187.832Z"
          fill="#E7F1FB"/>
    <path d="M163.201 208.685C168.115 204.442 170.081 201.063 170.081 201.063C170.081 201.063 163.465 195.837 163.465 171.773L160.205 186.657C160.205 186.657 159.894 201.111 163.201 208.685Z"
          fill="#BFCFDD"/>
    <path d="M114.065 212.112C114.065 214.916 113.058 229.178 113.058 229.178L118.068 236.321C118.978 233.325 118.14 228.938 117.468 226.565C116.677 223.761 121.471 214.916 129.525 213.311C137.578 211.705 141.965 197.251 141.965 197.251L118.044 185.531L110.469 187.832C110.469 187.832 114.065 209.308 114.065 212.112Z"
          fill="#1573FF"/>
    <path d="M90.5994 109.501C90.5994 109.501 92.9963 147.492 94.8898 153.916C96.7834 160.339 100.786 182.966 105.053 188.623C109.319 194.279 115.479 204.73 130.196 205.017C144.913 205.305 160.709 192.434 163.369 184.404C166.03 176.375 166.845 155.522 166.845 155.522C166.845 155.522 168.187 142.938 168.451 140.277C168.714 137.617 164.711 105.474 158.288 99.6019C151.864 93.7295 145.368 89.1754 137.794 87.3058C130.22 85.4362 92.2053 96.39 90.5994 109.501Z"
          fill="#E7F1FB"/>
    <path d="M111.285 133.446C111.117 133.302 110.925 133.158 110.757 133.039C107.761 130.642 105.388 128.772 106.563 119.065C107.737 109.165 115.815 103.245 115.911 103.197L116.342 103.772C116.27 103.82 108.432 109.573 107.306 119.16C106.203 128.46 108.432 130.234 111.237 132.487C111.405 132.631 111.596 132.775 111.764 132.919L111.285 133.446Z"
          fill="#BFCFDD"/>
    <path d="M148.844 93.8014C148.844 93.8014 156.586 101.543 159.223 110.172C161.86 118.801 160.589 134.812 160.589 134.812C160.589 134.812 166.845 137.737 167.085 141.236L167.516 125.656L161.931 106.002L155.46 95.671L148.844 93.8014Z"
          fill="#BFCFDD"/>
    <path d="M151.504 168.704C150.689 164.366 139.687 155.569 139.568 155.474L140.023 154.922C140.478 155.282 151.36 163.983 152.223 168.585L151.504 168.704Z"
          fill="#BFCFDD"/>
    <path d="M128.854 140.996C128.854 140.996 128.159 157.487 129.933 157.847C131.706 158.206 136.236 155.546 136.644 154.059C137.051 152.573 133.792 143.537 133.792 143.537C133.792 143.537 128.95 136.802 128.854 140.996Z"
          fill="white"/>
    <path d="M105.005 155.618C105.005 155.618 116.678 153.988 118.547 155.618C120.417 157.247 109.799 169.232 109.799 169.232L105.005 155.618Z"
          fill="white"/>
    <path d="M150.929 127.574C150.929 127.574 151.768 122.684 146.878 121.246C141.988 119.808 132.065 123.811 130.867 125.56C129.668 127.31 133.551 131.193 133.551 131.193L133.815 134.525C133.815 134.525 132.065 137.233 131.802 139.295C131.538 141.356 134.342 140.996 134.342 140.996L150.929 127.574Z"
          fill="white"/>
    <path d="M127.176 161.586C127.176 161.586 122.31 161.106 122.454 158.374C122.598 155.641 124.516 154.85 126.241 155.114C127.967 155.378 128.327 157.703 131.922 156.648C135.517 155.593 135.565 152.645 138.921 154.467C142.277 156.289 141.054 158.014 140.503 159.62C139.952 161.226 138.681 162.089 134.319 161.682C129.957 161.274 127.176 161.586 127.176 161.586Z"
          fill="white"/>
    <path d="M112.459 172.875L111.74 172.803C112.052 170.19 113.897 166.619 117.253 162.185C119.746 158.901 122.167 156.36 122.191 156.336L122.718 156.84C122.598 156.936 113.13 166.907 112.459 172.875Z"
          fill="#BFCFDD"/>
    <path d="M149.443 92.555C145.776 90.1342 141.941 88.3125 137.794 87.2819C130.196 85.4123 92.2053 96.3901 90.5994 109.477C90.5994 109.477 92.9963 147.468 94.8898 153.892C96.7834 160.315 100.786 182.942 105.053 188.623C105.7 189.486 106.395 190.444 107.138 191.475C108.888 183.086 110.877 171.557 109.511 167.961C107.282 162.065 105.053 156.313 103.447 149.913C101.841 143.513 103.447 136.418 103.447 136.418L107.45 131.984C99.8034 129.299 105.868 106.169 110.47 104.564C115.072 102.958 121.495 107.368 126.217 102.958C130.939 98.5473 148.844 93.8254 148.844 93.8254L149.443 92.555Z"
          fill="#BFCFDD"/>
    <path d="M103.735 102.286C103.735 102.286 96.5919 112.185 96.2803 114.702C95.9687 117.219 97.9581 140.397 97.9581 140.397C97.9581 140.397 94.4347 148.115 95.1537 152.022L92.3494 131.576V103.485L103.735 102.286Z"
          fill="#304D60"/>
    <path d="M152.272 91.1646C152.272 91.1646 153.062 85.2683 148.652 83.0152C144.242 80.7621 124.3 75.2492 108.912 83.0152C93.5235 90.7811 89.3769 95.9824 88.4421 104.563C87.5073 113.144 89.9042 142.554 89.9042 142.554L95.1294 152.046C95.1294 152.046 93.3797 116.452 93.931 113.384C94.4823 110.316 106.227 100.009 106.227 100.009L105.7 102.286L126.433 97.7321L126.169 99.4819C126.169 99.4819 134.199 90.7811 140.742 92.2672C147.286 93.7533 149.875 93.5855 152.272 91.1646Z"
          fill="#1573FF"/>
    <path d="M148.844 93.8013C148.844 93.8013 148.94 90.4936 152.943 89.7745C156.946 89.0554 159.367 90.3018 159.367 90.3018V91.668C159.367 91.668 166.51 96.2701 167.492 103.868C168.475 111.466 171.327 128.317 171.495 131.433C171.591 133.35 171.447 135.268 171.04 137.137C171.04 137.137 168.619 138.623 168.451 140.253C168.283 141.883 167.372 146.03 167.372 146.03C167.372 146.03 166.438 130.09 165.239 126.854C164.041 123.619 162.699 112.809 161.093 108.806C159.487 104.803 155.819 97.876 152.32 95.8386L148.844 93.8013Z"
          fill="#1573FF"/>
    <path d="M168.067 135.675C168.067 135.675 171.95 128.724 174.898 129.923C177.847 131.121 180.507 137.281 180.387 140.349C180.268 143.417 174.227 155.474 173.436 158.278C172.645 161.083 169.29 164.175 167.42 164.175C165.55 164.175 168.067 135.675 168.067 135.675Z"
          fill="#E7F1FB"/>
    <path d="M94.4821 147.971C94.4821 147.971 92.4687 140.756 90.743 139.414C89.0172 138.072 87.1236 138.479 86.86 140.085C86.5963 141.691 86.5963 147.3 87.7948 150.512C88.9932 153.724 92.7324 167.242 95.1533 168.441C97.5741 169.639 100.498 169.112 100.498 169.112L94.4821 147.971Z"
          fill="#BFCFDD"/>
    <path d="M119.77 131.6C119.77 131.6 121.496 135.867 120.968 136.394C120.441 136.922 105.173 136.25 103.447 136.394C101.721 136.538 97.9581 140.421 97.9581 140.421C97.9581 140.421 101.697 133.063 103.711 132.391C105.724 131.72 119.77 131.6 119.77 131.6Z"
          fill="#1573FF"/>
    <path d="M167.3 144.687C167.3 144.687 165.263 153.124 165.263 154.994C165.263 156.863 165.119 167.026 164.736 168.512C164.352 169.999 159.918 165.972 158.312 171.988C156.706 178.004 152.415 178.004 151.624 181.336C150.834 184.668 150.953 188.167 147.07 188.694C143.187 189.222 142.349 183.733 138.298 185.075C134.247 186.417 130.22 182.127 125.139 186.01C120.057 189.893 117.78 192.41 115.623 189.965C113.466 187.52 112.291 180.137 111.069 178.124C109.847 176.111 101.266 171.796 100.451 168.584C99.6358 165.372 96.7595 153.388 95.3453 151.902C95.3453 151.902 97.6224 171.173 98.7489 174.648C99.8755 178.124 103.375 188.646 104.717 189.533C106.059 190.42 108.025 191.666 108.648 194.711C109.271 197.755 110.781 200.247 113.73 202.285C116.678 204.322 119.003 206.575 120.872 205.592C120.872 205.592 123.101 208.181 128.902 208.181C134.702 208.181 144.769 206.12 146.998 203.891C149.228 201.662 149.323 202.74 150.738 201.662C152.152 200.583 156.274 195.142 157.785 194.782C159.295 194.423 163.753 186.921 164.304 184.188C164.855 181.456 168.499 174.121 168.451 172.947C168.403 171.772 167.156 169.375 167.42 166.427C167.684 163.479 167.3 144.687 167.3 144.687Z"
          fill="#9FB1BF"/>
    <path d="M157.808 194.807C159.318 194.447 163.776 186.969 164.328 184.188C164.879 181.408 168.522 174.121 168.474 172.947C168.45 172.468 168.235 171.749 167.971 170.862C167.036 169.639 164.184 174.936 161.044 175.584C157.904 176.231 158.455 186.897 155.243 188.311C152.032 189.725 146.159 200.248 140.239 199.648C134.318 199.049 132.928 202.86 129.573 200.847C126.217 198.833 120.728 201.518 115.599 198.306C110.469 195.094 110.206 190.205 107.09 188.239C103.974 186.274 97.6938 169.112 97.6938 169.112V169.136C98.1013 171.677 98.4848 173.738 98.7964 174.673C99.9469 178.148 103.422 188.671 104.765 189.557C106.107 190.444 108.072 191.691 108.696 194.735C109.319 197.779 110.829 200.272 113.777 202.309C116.725 204.346 119.05 206.599 120.92 205.617C120.92 205.617 123.149 208.205 128.949 208.205C134.75 208.205 144.817 206.144 147.046 203.915C149.275 201.686 149.371 202.764 150.785 201.686C152.199 200.607 156.298 195.166 157.808 194.807Z"
          fill="#304D60"/>
    <path d="M128.135 177.357C128.135 177.357 126.457 180.857 127.057 182.271C127.656 183.685 130.7 185.027 132.354 186.346C134.008 187.664 133.648 184.141 136.189 182.726C138.73 181.312 137.339 176.854 135.422 176.327C133.504 175.799 128.758 175.847 128.135 177.357Z"
          fill="#304D60"/>
    <path d="M117.253 172.252C117.253 172.252 118.835 174.361 122.454 175.176C126.074 175.991 130.82 175.248 134.751 175.584C140.863 176.087 148.389 170.167 148.389 170.167L132.641 170.406L121.184 170.958L117.253 172.252Z"
          fill="#9FB1BF"/>
    <path d="M105.005 145.335C105.005 145.335 103.447 142.986 103.447 136.394H120.968C120.968 136.394 124.324 140.972 124.851 142.626C125.378 144.28 123.245 154.443 122.454 156.576C121.663 158.709 121.999 162.209 127.176 161.562C127.176 161.562 121.879 161.01 123.053 156.888C123.581 155.018 125.474 155.473 127.176 155.21C128.878 154.946 126.553 143.848 127.176 141.907C127.799 139.965 120.968 136.37 120.968 136.37L121.232 144.424L105.005 145.335Z"
          fill="#BFCFDD"/>
    <path d="M105.005 145.335C105.005 145.335 110.086 140.517 114.904 141.667C119.722 142.818 121.232 144.424 121.232 144.424C121.232 144.424 117.397 146.389 112.052 146.198C106.707 146.006 105.005 145.335 105.005 145.335Z"
          fill="white"/>
    <path d="M116.102 144.016C116.102 143.178 115.791 142.387 115.216 141.763L114.904 141.691C113.25 141.308 111.572 141.596 110.062 142.171C109.223 143.393 109.319 145.023 110.278 146.15C110.805 146.174 111.405 146.222 112.028 146.222C113.13 146.246 114.257 146.198 115.359 146.054C115.863 145.503 116.102 144.76 116.102 144.016Z"
          fill="#1573FF"/>
    <path d="M112.818 145.119C113.507 145.119 114.065 144.561 114.065 143.872C114.065 143.184 113.507 142.626 112.818 142.626C112.13 142.626 111.572 143.184 111.572 143.872C111.572 144.561 112.13 145.119 112.818 145.119Z"
          fill="#040F1F"/>
    <path d="M121.232 144.448C121.232 144.448 124.156 143.633 124.588 146.797C124.828 148.499 125.163 147.013 125.427 145.311C125.714 143.393 125.187 141.452 123.941 139.99L120.969 136.418L121.064 140.996L121.232 144.448Z"
          fill="#9FB1BF"/>
    <path d="M169.338 139.438C169.338 139.438 173.7 131.409 175.306 131.576C176.912 131.744 180.291 136.562 179.596 140.229C178.901 143.896 176.912 149.505 176.912 149.505C176.912 149.505 176.648 133.086 173.7 135.603C170.752 138.12 169.338 139.438 169.338 139.438Z"
          fill="#9FB1BF"/>
    <path d="M169.505 146.701C169.505 146.701 168.57 142.147 170.104 142.219C171.638 142.291 174.922 145.574 175.066 147.636C175.21 149.697 168.043 156.744 167.971 155.473C167.899 154.203 172.789 150.536 172.453 148.93C172.118 147.324 169.505 146.701 169.505 146.701Z"
          fill="#9FB1BF"/>
    <path d="M92.3493 146.365C92.3493 146.365 88.5143 140.301 87.7952 140.565C87.0762 140.828 87.0042 148.69 87.7952 150.2C88.5862 151.71 89.2334 142.985 89.2334 142.985L92.3493 146.365Z"
          fill="#304D60"/>
    <path d="M95.1053 154.131C95.1053 154.131 93.4275 156.696 94.1705 157.822C94.9136 158.949 97.0947 162.664 95.9442 162.472C94.7937 162.281 91.4621 160.267 90.9827 158.326C90.5033 156.384 93.2118 150.416 93.8589 150.799C94.5061 151.183 95.1053 154.131 95.1053 154.131Z"
          fill="#304D60"/>
    <path d="M156.322 252.979L156.082 252.38C156.058 252.284 152.535 243.919 144.481 240.995C139.184 239.053 133.096 239.868 126.385 243.368L126.049 242.72C132.928 239.101 139.232 238.286 144.721 240.3C151.84 242.888 155.507 249.528 156.49 251.517L186.523 209.979L174.61 202.836L174.97 202.213L187.554 209.739L187.314 210.051L156.322 252.979Z"
          fill="#1573FF"/>
    <path d="M95.0095 256.503C94.2185 251.182 94.4582 245.285 95.7525 238.958C96.4476 235.458 97.4543 231.983 98.7247 228.675C101.553 219.303 112.579 204.898 112.675 204.754L113.25 205.185C113.13 205.329 102.2 219.639 99.3958 228.891V228.915C98.1254 232.198 97.1187 235.626 96.4476 239.101C95.5608 243.464 95.1773 247.586 95.2971 251.469C95.7046 247.491 96.6633 242.193 98.9643 239.749L99.0602 239.653H99.204C99.995 239.605 118.595 238.622 121.375 240.396L120.992 240.995C118.859 239.629 104.813 240.06 99.3958 240.372C95.8244 244.351 95.7285 256.359 95.7285 256.479L95.0095 256.503Z"
          fill="#1573FF"/>
    <path d="M160.182 93.4417C159.511 92.8664 160.374 93.1061 161.836 93.7053C161.069 92.9623 160.23 92.2912 159.367 91.692V90.3257C159.367 90.3257 156.97 89.0793 152.943 89.7984C148.916 90.5175 148.844 93.8252 148.844 93.8252L152.344 95.8865C154.861 97.3726 157.497 101.399 159.367 105.043C158.911 102.43 158.312 99.6497 158.312 99.6497C158.312 99.6497 162.603 99.6017 163.657 102.094C164.712 104.587 162.195 95.1914 160.182 93.4417Z"
          fill="#040F1F"/>
    <path d="M98.7731 107.056C99.3723 103.82 99.8038 100.561 100.043 97.2768L101.841 92.0996L96.2564 90.7094C90.9592 94.9758 89.0417 99.0745 88.4425 104.539C88.2268 106.481 88.2028 109.477 88.2507 112.953C88.8739 111.586 89.7368 110.076 90.5757 109.477C92.2775 108.303 91.151 116.955 92.3255 120.359C92.9726 122.229 93.2603 120.79 93.8355 118.705C93.7876 115.973 93.8115 113.983 93.9074 113.36C94.1711 112.09 96.3283 109.573 98.7731 107.056Z"
          fill="#040F1F"/>
    <path d="M150.666 84.6691C150.115 83.974 149.443 83.4227 148.652 83.0153C144.242 80.7382 124.3 75.2493 108.912 83.0153C95.1537 89.9663 90.3839 94.8799 88.8499 101.951C92.9965 98.2835 97.9341 95.3114 97.9341 95.3114L92.3254 105.258L97.9341 103.724L94.3867 112.305C96.6398 108.422 106.251 100.009 106.251 100.009L105.724 102.286L126.457 97.7322L126.194 99.482C126.194 99.482 129.429 95.9825 133.48 93.7774C134.87 91.1647 147.023 89.5828 147.023 89.5828C145.465 87.3057 135.206 84.4534 135.206 84.4534C142.085 83.6385 149.443 87.09 149.443 87.09L145.273 83.6385C147.118 83.5186 148.988 83.8782 150.666 84.6691Z"
          fill="#318FFF"/>
    <path d="M123.605 244.758L112.699 229.202V229.082C112.699 228.938 113.705 214.821 113.705 212.04C113.705 211.585 113.586 210.506 113.37 208.852V208.756C113.13 207.007 112.795 204.658 112.315 201.59C110.23 199.84 108.792 197.395 108.288 194.711C107.713 191.906 105.916 190.708 104.597 189.821L104.501 189.749C103.495 189.078 101.433 183.997 98.3893 174.673C98.0298 173.594 97.6462 171.269 97.3346 169.399C96.5197 169.28 95.7048 169.04 94.9617 168.68C93.1161 167.77 90.887 161.25 88.586 154.059C88.1066 152.573 87.6991 151.279 87.4115 150.56C86.1651 147.252 86.1891 141.619 86.4527 139.942C86.5486 139.294 86.9082 138.767 87.4355 138.455C87.9388 138.168 88.562 138.096 89.2092 138.216C88.586 129.851 87.3396 110.963 88.0587 104.396C88.586 99.6736 90.0481 96.294 92.9723 93.1301C96.0643 89.7744 100.93 86.5147 108.72 82.5837L109.055 83.2309C94.5063 90.5654 89.7605 95.527 88.7777 104.491C88.0587 111.131 89.353 130.618 89.9522 138.671L90.0002 139.222L89.4728 139.031C88.8496 138.791 88.2264 138.815 87.795 139.055C87.4594 139.246 87.2437 139.582 87.1718 140.013C86.9082 141.595 86.9082 147.132 88.0826 150.272C88.3703 151.015 88.7538 152.238 89.2571 153.796C90.7672 158.47 93.5476 167.146 95.2733 167.985C96.0403 168.345 96.8553 168.584 97.6942 168.656L97.9818 168.68L98.0298 168.944C98.4372 171.605 98.8207 173.522 99.0844 174.361C103.279 187.184 104.621 188.862 104.909 189.078L105.005 189.15C106.347 190.037 108.36 191.403 108.984 194.495C109.463 197.06 110.853 199.385 112.867 201.038L112.962 201.134L112.986 201.278C113.466 204.418 113.825 206.791 114.065 208.589V208.685C114.281 210.386 114.401 211.465 114.401 211.968C114.401 214.653 113.514 227.404 113.394 228.914L124.156 244.255L123.605 244.758Z"
          fill="#040F1F"/>
    <path d="M116.894 299.24C112.915 267.385 118.691 255.592 121.472 249.935C122.119 248.593 122.646 247.538 122.79 246.7C123.221 244.399 124.875 243.296 129.837 240.036C131.419 238.982 133.408 237.687 135.829 236.033C140.503 232.846 143.355 230.592 145.704 228.267C147.454 226.542 148.077 225.703 149.084 224.36C149.971 223.162 151.193 221.508 153.806 218.464C155.723 216.235 156.946 214.941 158.647 213.119C160.301 211.345 162.363 209.164 165.934 205.185C167.252 203.723 168.547 202.261 169.817 200.847L170.344 201.326C169.098 202.74 167.78 204.203 166.461 205.665C162.89 209.644 160.805 211.849 159.151 213.598C157.449 215.396 156.251 216.69 154.333 218.92C151.744 221.94 150.522 223.57 149.635 224.768C148.628 226.11 147.981 226.997 146.184 228.771C143.811 231.12 140.934 233.397 136.213 236.609C133.792 238.262 131.826 239.581 130.22 240.635C125.331 243.847 123.868 244.83 123.485 246.843C123.317 247.802 122.79 248.833 122.095 250.271C119.362 255.88 113.634 267.529 117.589 299.168L116.894 299.24Z"
          fill="#1573FF"/>
    <path d="M134.199 135.723C134.199 135.723 134.199 143.369 134.726 143.345C135.254 143.321 137.555 141.931 137.555 141.931L154.045 141.116C154.045 141.116 158.072 135.531 160.541 134.764L149.419 129.755L134.199 135.723Z"
          fill="#BFCFDD"/>
    <path d="M133.552 131.193C133.552 131.193 147.741 126.639 150.929 127.573C154.117 128.508 160.565 134.788 160.565 134.788C160.565 134.788 156.825 132.775 152.942 132.391C149.059 132.008 135.277 136.011 134.223 135.747C133.168 135.483 133.552 131.193 133.552 131.193Z"
          fill="#1573FF"/>
    <path d="M137.555 141.955C137.555 141.955 142.277 138.216 146.376 138.647C150.474 139.079 154.046 141.14 154.046 141.14C154.046 141.14 150.834 143.201 146.999 143.273C143.164 143.345 137.915 143.657 137.555 141.955Z"
          fill="white"/>
    <path d="M148.364 143.177C149.299 141.811 149.06 139.965 147.813 138.863C147.334 138.767 146.854 138.695 146.375 138.647C145.344 138.551 144.314 138.671 143.331 138.959C142.109 140.133 141.965 142.027 143.019 143.345C144.362 143.345 145.752 143.297 146.998 143.273C147.478 143.273 147.909 143.225 148.364 143.177Z"
          fill="#1573FF"/>
    <path d="M145.632 142.243C146.321 142.243 146.879 141.685 146.879 140.996C146.879 140.308 146.321 139.75 145.632 139.75C144.944 139.75 144.386 140.308 144.386 140.996C144.386 141.685 144.944 142.243 145.632 142.243Z"
          fill="#040F1F"/>
    <path d="M129.237 161.634C129.237 161.634 124.779 161.586 122.694 163.335C120.609 165.085 116.414 165.565 115.144 167.29C113.873 169.016 111.309 170.43 111.764 173.81C112.22 177.19 113.754 177.765 113.754 177.765C113.754 177.765 114.904 174.074 116.294 173.402C117.684 172.731 119.818 168.92 122.574 168.848C125.331 168.776 128.998 168.561 129.429 168.033C129.861 167.506 128.638 165.469 129.309 164.294C129.981 163.12 129.237 161.634 129.237 161.634Z"
          fill="#9FB1BF"/>
    <path d="M132.641 161.993C132.641 161.993 131.85 165.229 132.761 165.996C133.671 166.763 133.528 167.41 135.301 167.793C137.075 168.177 143.499 167.554 144.769 168.513C146.039 169.471 148.436 168.68 149.299 171.053C150.162 173.426 151.289 174.744 151.72 174.816C152.151 174.888 153.206 170.406 152.056 168.105C150.905 165.804 148.94 165.253 145.8 164.63C142.66 164.006 142.444 162.856 139.04 162.496C135.637 162.137 134.486 160.962 132.641 161.993Z"
          fill="#9FB1BF"/>
    <path d="M148.389 170.166C143.116 170.79 137.771 166.643 134.918 168.321C132.066 169.999 128.95 168.608 127.152 168.345C125.355 168.081 117.253 172.276 117.253 172.276C117.253 172.276 120.177 172.923 121.64 172.851C123.102 172.779 124.923 170.981 128.471 171.653C132.018 172.324 134.415 170.718 137.579 171.317C140.743 171.916 146.471 171.293 148.389 170.166Z"
          fill="#304D60"/>
    <path d="M121.424 173.354C119.866 173.354 117.301 172.779 117.181 172.755L117.325 172.06C117.349 172.06 120.225 172.707 121.616 172.635C122.047 172.611 122.55 172.419 123.126 172.18C124.348 171.676 126.05 170.981 128.519 171.461C130.268 171.796 131.779 171.533 133.217 171.293C134.607 171.053 136.021 170.814 137.627 171.125C140.311 171.629 146.136 171.101 148.197 169.879L148.557 170.502C146.519 171.724 140.623 172.419 137.483 171.82C136.021 171.533 134.703 171.772 133.336 171.988C131.826 172.252 130.268 172.515 128.375 172.156C126.122 171.724 124.612 172.348 123.389 172.851C122.742 173.115 122.191 173.354 121.64 173.378C121.592 173.354 121.52 173.354 121.424 173.354Z"
          fill="#040F1F"/>
    <path d="M133.816 143.537C133.816 143.537 134.751 152.909 135.685 153.7C136.62 154.491 139.305 153.556 140.359 155.833C141.414 158.11 140.479 160.387 139.281 161.322C139.281 161.322 144.099 158.254 138.873 153.556C138.897 153.556 134.199 146.078 133.816 143.537Z"
          fill="#BFCFDD"/>
    <path d="M146.879 153.868C146.879 153.868 153.11 147.252 156.37 150.776C159.63 154.299 160.661 167.698 156.37 167.889C152.08 168.081 146.879 153.868 146.879 153.868Z"
          fill="white"/>
    <path d="M105.341 145.502L104.693 145.191C104.765 145.071 106.203 142.171 109.775 141.188C113.059 140.277 116.989 141.284 121.424 144.16L121.04 144.759C116.774 142.003 113.035 141.02 109.967 141.883C106.707 142.77 105.341 145.478 105.341 145.502Z"
          fill="#040F1F"/>
    <path d="M137.795 142.219L137.315 141.667C137.411 141.596 146.256 134.141 154.285 140.852L153.83 141.404C150.666 138.743 147.023 138.072 142.996 139.39C139.952 140.397 137.819 142.195 137.795 142.219Z"
          fill="#040F1F"/>
    <path d="M139.52 159.692C139.52 159.692 139.185 157.559 136.74 158.254C134.295 158.949 133.144 159.764 134.127 160.459C136.428 162.089 137.219 156.552 139.52 159.692Z"
          fill="#040F1F"/>
    <path d="M123.437 159.812C123.437 159.812 126.817 158.134 128.83 160.771C128.758 161.13 128.423 161.37 128.063 161.298H128.039C127.368 161.154 126.026 159.332 123.437 159.812Z"
          fill="#040F1F"/>
    <path d="M131.491 161.202C130.724 161.01 130.052 160.531 129.645 159.836C129.285 159.237 128.998 158.565 129.213 158.302C129.645 157.774 132.042 158.47 132.329 159.165C132.617 159.86 133.144 161.585 133.144 161.585L131.491 161.202Z"
          fill="#E7F1FB"/>
    <path d="M105.245 102.742L105.916 99.9136L106.611 100.081L106.203 101.807L126.889 97.253L126.721 98.4035C127.632 97.5167 129.309 96.0066 131.371 94.6404C135.565 91.86 139.424 91.0211 142.492 92.2195L142.229 92.8907C135.326 90.1822 126.553 99.602 126.481 99.6979L125.69 100.561L126.05 98.1639L105.245 102.742Z"
          fill="#040F1F"/>
    <path d="M134.295 136.083L134.127 135.388C134.798 135.244 150.641 131.624 152.99 132.032C155.148 132.415 158.288 133.086 160.732 134.477L160.373 135.1C158.024 133.782 154.956 133.11 152.871 132.751C151.049 132.415 138.849 135.052 134.295 136.083Z"
          fill="#040F1F"/>
    <path d="M147.429 179.443C147.429 179.443 145.871 180.545 148.795 182.607C151.72 184.668 151.264 181.025 151.264 181.025C151.264 181.025 152.199 181.192 152.583 180.809C152.966 180.425 147.429 179.443 147.429 179.443Z"
          fill="#9FB1BF"/>
    <path d="M98.2212 140.661L97.6938 140.157C97.8377 140.013 101.217 136.442 103.375 136.035C105.46 135.651 120.345 136.011 120.968 136.035L120.944 136.754C120.8 136.754 105.508 136.37 103.494 136.754C101.577 137.113 98.2451 140.637 98.2212 140.661Z"
          fill="#040F1F"/>
    <path d="M136.332 118.681C136.332 118.681 145.177 119.928 148.101 118.154C151.025 116.38 146.303 107.176 143.019 107.895C139.736 108.614 134.199 114.678 136.332 118.681Z"
          fill="white"/>
    <path d="M167.803 164.582C167.636 164.582 167.468 164.558 167.3 164.51L167.468 163.815C168.522 164.078 169.601 162.952 170.752 161.753C170.991 161.514 171.207 161.274 171.447 161.034C172.453 160.028 173.604 157.103 174.611 154.515C175.042 153.388 175.473 152.31 175.881 151.375L176.528 151.662C176.121 152.597 175.713 153.652 175.258 154.778C174.179 157.559 173.053 160.435 171.926 161.562C171.686 161.801 171.471 162.041 171.231 162.281C170.128 163.455 169.05 164.582 167.803 164.582Z"
          fill="#BFCFDD"/>
    <path d="M143.93 144.304C140.407 144.304 137.986 143.633 137.962 143.633L138.153 142.938C138.225 142.962 145.44 144.927 153.158 141.907L153.422 142.578C149.97 143.921 146.638 144.304 143.93 144.304Z"
          fill="#BFCFDD"/>
    <path d="M112.411 147.204C108.696 147.204 105.843 146.461 105.652 146.413L105.843 145.718C105.915 145.742 113.801 147.803 120.513 145.023L120.8 145.694C117.948 146.845 114.976 147.204 112.411 147.204Z"
          fill="#BFCFDD"/>
</svg>
