<svg width="276" height="321" viewBox="0 0 276 321" fill="none" xmlns="http://www.w3.org/2000/svg">
    <path d="M0 0H276V320H0V0Z" fill="#D9DEE3"/>
    <rect x="254" width="22" height="22" fill="#EAEEF2"/>
    <path d="M166.897 148.9C166.897 148.9 172.728 145.073 174.747 147.123C176.766 149.173 177.537 160.858 174.747 166.187C171.957 171.517 170.187 179.148 164.606 176.369C159.025 173.59 166.897 148.9 166.897 148.9Z"
          fill="#BFCFDD"/>
    <path d="M98.2691 148.899C98.2691 148.899 92.9604 142.294 90.9186 145.346C88.8768 148.398 93.1872 167.964 94.5938 172.291C96.0004 176.619 99.29 180.673 101.808 174.569C104.326 168.465 98.2691 148.899 98.2691 148.899Z"
          fill="#BFCFDD"/>
    <path d="M99.4722 159.582C99.4722 159.582 95.502 158.625 96.0918 163.659C96.6817 168.693 95.5927 170.583 96.9085 170.47C98.2244 170.356 97.9975 165.504 99.8125 167.554C101.627 169.604 99.4722 159.582 99.4722 159.582Z"
          fill="#9FB1BF"/>
    <path d="M98.2239 154.002C98.2239 154.002 95.32 149.401 93.5504 150.221C91.7808 151.041 94.957 164.775 94.957 164.775C94.957 164.775 92.2346 151.132 99.4944 158.534C106.754 165.937 98.2239 154.002 98.2239 154.002Z"
          fill="#9FB1BF"/>
    <path d="M106.574 192.882V218.051C106.574 218.051 131.257 229.485 146.639 223.403C162.02 217.322 160.319 204.726 160.319 204.726L160.364 182.997L106.574 192.882Z"
          fill="#304D60"/>
    <path d="M105.643 214.543L89.6939 234.177C89.6939 234.177 53.9849 248.572 41.8247 259.255C29.6646 269.937 20 320.024 20 320.024H253.81C253.81 320.024 256.011 272.215 245.416 258.48C234.822 244.746 199.113 239.393 178.604 218.803C171.571 211.742 166.126 206.457 161.951 202.608C158.276 199.237 144.074 224.406 144.074 224.406L105.643 214.543Z"
          fill="#040F1F"/>
    <path d="M105.551 202.608L102.262 237.639L82.5015 320.024H145.571C145.571 320.024 168.099 261.533 170.39 243.994C170.39 243.994 162.291 200.513 162.042 196.185C162.019 196.185 143.03 233.312 105.551 202.608Z"
          fill="#9FB1BF"/>
    <path d="M105.53 202.608L102.308 236.956L104.236 237.867C104.236 237.867 102.921 230.487 125.154 231.262C141.193 231.831 147.818 217.436 150.268 209.35C140.876 215.933 125.948 219.326 105.53 202.608Z"
          fill="#304D60"/>
    <path d="M169.279 128.81C169.279 128.81 165.74 160.835 165.467 171.016C165.195 181.198 164.446 188.805 162.427 193.383C160.408 197.962 145.616 220.602 132.254 220.329C118.891 220.055 101.4 190.331 101.4 186.778C101.4 183.225 97.8606 156.781 97.3388 149.651C96.817 142.522 93.2779 120.929 103.419 112.525C113.56 104.12 159.886 100.567 166.738 112.525C173.589 124.483 169.279 128.81 169.279 128.81Z"
          fill="#E7F1FB"/>
    <path d="M150.902 160.197C150.902 160.197 142.463 172.793 142.554 180.332C142.554 180.332 140.807 175.982 138.651 175.959C138.651 175.959 138.72 171.95 135.702 169.057L144.754 159.035L150.902 160.197Z"
          fill="#BFCFDD"/>
    <path d="M143.393 109.571L142.72 109.672L147.826 144.002L148.499 143.901L143.393 109.571Z" fill="#BFCFDD"/>
    <path d="M97.3404 149.651C97.8395 156.78 101.401 183.225 101.401 186.778C101.401 188.942 107.799 200.649 115.807 209.646C116.647 203.018 104.328 190.081 102.899 176.938C101.469 163.796 105.372 161.723 105.372 161.723L105.394 152.886C98.384 127.147 116.624 112.775 116.624 112.775L112.336 108.402C108.434 109.563 105.281 110.953 103.398 112.525C93.3021 120.929 96.8413 142.545 97.3404 149.651Z"
          fill="#BFCFDD"/>
    <path d="M124.769 177.621C124.769 177.621 122.568 181.425 126.379 182.951C130.191 184.477 127.105 191.834 127.105 191.834L134.184 192.108L132.913 183.771C132.913 183.771 139.265 181.926 138.517 178.874C137.768 175.822 132.437 180.15 129.646 179.626C127.922 179.307 126.243 178.624 124.769 177.621Z"
          fill="#BFCFDD"/>
    <path d="M146.252 105.076L151.516 141.019C151.516 141.019 123.293 143.342 123.929 154.002L128.489 156.325L138.993 155.505L160.704 161.108C160.704 161.108 148.612 173.476 150.268 184.842C151.924 196.208 156.121 205.296 141.102 216.502C135.567 220.625 128.852 219.372 122.59 216.138C125.834 218.643 129.147 220.283 132.232 220.329C145.617 220.579 160.386 197.962 162.405 193.383C164.425 188.805 165.196 181.175 165.445 171.016C165.695 160.858 169.234 128.81 169.234 128.81C169.234 128.81 173.545 124.483 166.693 112.547C164.152 108.06 155.985 105.76 146.252 105.076Z"
          fill="#BFCFDD"/>
    <path d="M162.156 155.141C160.409 158.762 162.927 164.092 163.29 173.248C163.653 182.405 157.006 183.453 155.304 193.702C153.603 203.952 153.308 205.842 146.887 213.382L146.819 213.473C154.76 206.48 161.158 196.344 162.451 193.429C164.47 188.851 165.241 181.22 165.491 171.062C165.74 160.903 169.302 128.856 169.302 128.856C169.302 128.856 173.25 124.87 167.533 113.96L157.868 108.448C157.845 108.425 163.903 151.519 162.156 155.141Z"
          fill="#9FB1BF"/>
    <path d="M128.489 156.325C128.489 156.325 109.931 143.912 102.898 149.446C95.8648 154.981 101.831 157.464 101.831 157.464C104.055 161.632 108.229 164.365 112.925 164.753C120.956 165.413 128.489 156.325 128.489 156.325Z"
          fill="#9FB1BF"/>
    <path d="M135.385 157.373L134.84 170.629C134.84 170.629 139.151 172.018 138.652 177.735C138.652 177.735 142.372 175.321 136.769 169.855C136.769 169.855 139.922 168.078 141.556 163.75C141.556 163.75 162.586 164.775 163.199 157.783C163.811 150.79 159.977 150.448 159.977 150.448L139.4 150.152C139.4 150.152 135.385 152.658 135.385 157.373Z"
          fill="#9FB1BF"/>
    <path d="M163.811 123.594L166.715 150.426C166.715 150.426 168.893 147.373 171.32 146.804L173.929 120.178H177.854C177.854 120.178 179.193 104.803 172.341 102.685L171.955 96.0111L166.828 98.3116L167.395 91.6379L163.788 92.4123C163.788 92.4123 148.792 82.5042 139.672 83.2559C130.552 84.0075 129.622 85.7158 129.622 85.7158C129.622 85.7158 117.847 78.0855 111.019 88.5857C111.019 88.5857 99.6298 92.0251 99.4256 93.7334L93.527 92.5945V100.407C93.527 100.407 85.1783 106.899 84.7926 124.232C84.4069 141.565 88.3998 156.074 88.3998 156.074L91.3945 158.01C91.3945 158.01 89.0804 139.174 96.6805 147.191L97.6107 148.353C97.6107 148.353 93.527 125.758 102.829 119.267C112.13 112.775 123.905 115.258 123.905 115.258C123.905 115.258 120.865 109.336 125.606 111.431L130.348 113.527C130.348 113.527 150.494 112.388 153.897 111.613C157.3 110.839 159.591 119.494 161.678 121.521L163.811 123.594Z"
          fill="#1573FF"/>
    <path d="M123.928 115.258C123.928 115.258 95.91 110.452 102.421 146.508H100.425L99.5852 140.404V148.193L98.8366 149.97C98.8366 149.993 92.0759 105.122 123.928 115.258Z"
          fill="#1573FF"/>
    <path d="M137.381 250.44C132.866 250.44 128.442 249.825 124.2 248.641C114.127 245.793 108.455 240.486 108.387 240.418L108.864 239.917C108.909 239.963 114.513 245.179 124.427 247.98C130.235 249.62 136.383 250.121 142.712 249.483C150.608 248.663 158.775 246.021 166.987 241.648L167.305 242.24C159.002 246.659 150.744 249.324 142.758 250.144C140.943 250.349 139.151 250.44 137.381 250.44Z"
          fill="#040F1F"/>
    <path d="M167.396 298.591L166.828 298.204L181.121 276.702H211.181L191.625 229.348L192.26 229.098L212.202 277.385H181.484L167.396 298.591Z"
          fill="#1573FF"/>
    <path d="M82.1613 320.024L80.0968 288.022L54.7103 284.947L54.8691 284.537C61.4029 266.885 103.555 216.775 103.986 216.274L104.508 216.707C104.077 217.208 62.628 266.475 55.6631 284.378L80.7547 287.407L82.8646 319.978L82.1613 320.024Z"
          fill="#1573FF"/>
    <path d="M117.236 191.926C117.236 191.926 124.133 196.572 130.462 197.324C136.792 198.076 146.842 191.926 146.842 191.926H117.236Z"
          fill="#9FB1BF"/>
    <path d="M117.236 191.925L127.672 190.012C129.668 190.923 131.96 190.923 133.933 190.012L146.842 191.925C146.865 191.925 130.508 195.889 117.236 191.925Z"
          fill="#304D60"/>
    <path d="M130.779 194.021C126.355 194.021 121.568 193.588 117.144 192.267L117.348 191.606C130.371 195.501 146.637 191.652 146.796 191.606L146.955 192.267C146.841 192.29 139.536 194.021 130.779 194.021Z"
          fill="#040F1F"/>
    <path d="M125.313 151.815C125.313 151.815 116.964 146.485 110.498 147.123C104.033 147.761 102.785 148.353 102.898 149.446C103.012 150.539 108.842 149.401 114.105 150.562C119.369 151.724 123.906 155.505 125.313 151.815Z"
          fill="#1573FF"/>
    <path d="M137.449 151.701C137.449 151.701 145.163 144.982 153.398 147.077C161.633 149.173 162.133 151.701 162.133 151.701C159.002 151.04 155.826 150.539 152.627 150.243C147.84 149.788 142.395 155.254 137.449 151.701Z"
          fill="#1573FF"/>
    <path d="M123.156 153.728C121.931 153.728 120.411 153.136 118.733 152.453C117.303 151.883 115.693 151.246 114.014 150.881C111.382 150.312 108.569 150.312 106.504 150.312C104.031 150.312 102.648 150.312 102.557 149.469L103.237 149.401V149.378C103.442 149.651 105.143 149.628 106.504 149.628C108.614 149.628 111.473 149.628 114.172 150.198C115.897 150.562 117.53 151.223 118.982 151.815C121.092 152.658 122.907 153.364 123.996 152.886C124.427 152.681 124.767 152.293 124.994 151.701L125.629 151.952C125.334 152.749 124.881 153.25 124.268 153.523C123.928 153.66 123.565 153.728 123.156 153.728Z"
          fill="#040F1F"/>
    <path d="M141.192 153.25C139.854 153.25 138.538 152.908 137.245 151.974L137.631 151.428C140.489 153.478 143.484 152.384 146.637 151.223C148.634 150.494 150.698 149.72 152.649 149.902C155.848 150.221 159.047 150.722 162.178 151.382L162.042 152.043C158.934 151.382 155.757 150.904 152.581 150.585C150.789 150.426 148.883 151.132 146.864 151.861C145.026 152.544 143.098 153.25 141.192 153.25Z"
          fill="#040F1F"/>
    <path d="M122.363 157.532C122.363 157.532 111.224 147.1 105.393 157.532C105.393 157.532 115.149 158.808 122.363 157.532Z"
          fill="white"/>
    <path d="M158.708 156.94C151.266 147.442 141.829 157.373 141.829 157.373C141.829 157.373 153.989 160.243 158.708 156.94Z"
          fill="white"/>
    <path d="M117.78 158.033C118.529 157.145 118.824 155.938 118.529 154.799C116.85 153.842 114.786 152.999 112.676 152.931C111.156 154.229 110.951 156.507 112.245 158.033C112.245 158.056 112.267 158.056 112.267 158.079C114.014 158.102 115.897 158.124 117.78 158.033Z"
          fill="#1573FF"/>
    <path d="M153.467 155.687C153.467 154.594 152.991 153.569 152.152 152.885C150.178 152.68 148.272 153.204 146.661 153.956C145.89 155.391 146.162 157.145 147.319 158.283C148.907 158.466 150.496 158.557 152.106 158.534C152.968 157.851 153.467 156.78 153.467 155.687Z"
          fill="#1573FF"/>
    <path d="M149.837 157.373C150.764 157.373 151.515 156.618 151.515 155.687C151.515 154.756 150.764 154.001 149.837 154.001C148.909 154.001 148.158 154.756 148.158 155.687C148.158 156.618 148.909 157.373 149.837 157.373Z"
          fill="#040F1F"/>
    <path d="M115.035 157.373C115.962 157.373 116.713 156.618 116.713 155.687C116.713 154.756 115.962 154.001 115.035 154.001C114.107 154.001 113.356 154.756 113.356 155.687C113.356 156.618 114.107 157.373 115.035 157.373Z"
          fill="#040F1F"/>
    <path d="M122.136 157.805C117.78 154.024 113.969 152.498 110.792 153.25C107.231 154.093 105.733 157.623 105.711 157.669L105.075 157.418C105.143 157.259 106.709 153.523 110.634 152.589C114.037 151.769 118.052 153.364 122.59 157.282L122.136 157.805Z"
          fill="#040F1F"/>
    <path d="M142.078 157.6L141.556 157.145C141.737 156.94 145.912 152.202 151.175 152.293C154.034 152.339 156.665 153.842 158.979 156.712L158.458 157.145C156.28 154.434 153.829 153.022 151.175 152.977C146.207 152.885 142.123 157.555 142.078 157.6Z"
          fill="#040F1F"/>
    <path d="M110.702 162.771L110.611 162.087C116.509 161.336 122.453 159.263 122.499 159.24L122.726 159.878C122.68 159.924 116.691 162.019 110.702 162.771Z"
          fill="#BFCFDD"/>
    <path d="M151.674 163.044C149.134 163.044 147.046 162.589 145.504 162.11C142.6 161.176 140.966 159.901 140.898 159.832L141.329 159.309C141.397 159.354 147.727 164.32 157.732 161.518L157.913 162.179C155.622 162.816 153.535 163.044 151.674 163.044Z"
          fill="#BFCFDD"/>
    <path d="M172.705 107.445C172.705 107.445 164.765 100.202 158.594 113.162C158.594 113.162 157.686 107.309 160.25 104.257L153.852 111.636C157.278 110.862 159.547 119.517 161.634 121.544L163.721 123.572L163.925 125.485C165.241 123.48 168.077 119.563 170.504 118.857C173.794 117.9 162.519 115.805 162.519 115.805C162.519 115.805 165.105 103.892 172.705 107.445Z"
          fill="#040F1F"/>
    <path d="M103.419 112.684C100.765 116.146 100.197 117.718 102.557 119.631C102.648 119.563 102.738 119.494 102.829 119.426C112.131 112.934 123.905 115.417 123.905 115.417C123.905 115.417 120.865 109.495 125.607 111.591L130.348 113.686C130.348 113.686 150.04 112.57 153.784 111.796L153.806 111.773C153.806 111.773 155.417 98.5621 150.245 90.7951V107.195C150.245 107.195 149.246 97.4005 147.59 93.5967L146.184 100.339L141.782 100.453L142.894 108.538C142.894 108.538 131.891 110.475 129.214 108.538C126.537 106.602 122.567 92.3212 119.527 88.8818L121.228 100.316L114.967 90.5901C114.967 90.5901 117.78 107.559 117.19 110.224C116.6 112.889 93.5502 100.544 93.5502 100.544C93.5502 100.544 107.412 107.468 103.419 112.684Z"
          fill="#040F1F"/>
    <path d="M99.4714 119.631C96.0911 119.995 93.0511 140.631 92.2797 137.329C91.5084 134.026 93.5502 117.49 93.5502 117.49C89.7388 125.234 87.9919 137.693 87.9919 137.693C85.3375 122.956 88.6498 107.081 88.6498 107.081C86.7441 110.884 84.9972 116.465 84.8157 124.232C84.4301 141.588 88.4229 156.074 88.4229 156.074L91.4176 158.01C91.4176 158.01 89.1036 139.174 96.7036 147.191L97.6338 148.353C97.6338 148.353 94.2988 129.858 100.538 121.544C100.243 120.291 99.8798 119.585 99.4714 119.631Z"
          fill="#040F1F"/>
    <path d="M129.033 181.107C129.033 181.107 125.993 177.371 125.244 178.988C124.495 180.606 129.033 181.107 129.033 181.107Z"
          fill="#040F1F"/>
    <path d="M133.798 181.107C133.798 181.107 136.203 177.507 137.382 178.578C138.562 179.649 133.798 181.107 133.798 181.107Z"
          fill="#040F1F"/>
    <path d="M111.406 198.144C111.406 198.144 123.316 205.182 128.035 206.867C128.035 206.867 121.116 207.619 125.426 215.522C125.403 215.5 111.156 204.316 111.406 198.144Z"
          fill="white"/>
    <path d="M126.922 119.631C126.922 119.631 128.397 137.442 126.922 140.768C125.448 144.093 118.619 144.754 114.059 144.549C109.499 144.344 112.13 137.215 120.819 136.713C120.819 136.691 120.298 114.779 126.922 119.631Z"
          fill="white"/>
    <path d="M115.535 123.435C115.535 123.435 113.039 138.286 108.366 137.693C103.692 137.101 109.591 122.205 112.177 121.294C114.763 120.383 115.535 123.435 115.535 123.435Z"
          fill="white"/>
    <path d="M116.124 194.659C116.124 194.659 125.607 198.986 132.05 198.804C138.493 198.622 147.318 192.723 149.632 194.135C151.947 195.547 150.994 202.107 147.273 204.066C143.552 206.025 108.479 196.048 116.124 194.659Z"
          fill="#BFCFDD"/>
    <path d="M127.309 208.667C127.309 208.667 122.341 211.149 127.309 213.769C132.277 216.388 144.46 208.052 137.677 208.667C130.894 209.282 127.309 208.667 127.309 208.667Z"
          fill="white"/>
    <path d="M132.05 157.532L131.37 173.544C131.37 173.544 134.455 175.981 132.98 177.735C131.506 179.489 127.127 178.874 126.447 177.621C125.766 176.369 131.528 155.163 132.05 157.532Z"
          fill="white"/>
    <path d="M107.729 169.672C107.729 169.672 113.809 174.57 121.024 171.381C128.238 168.192 116.214 184.865 112.789 184.227C109.363 183.589 100.765 168.238 107.729 169.672Z"
          fill="white"/>
    <path d="M113.106 193.93C113.061 193.885 112.13 192.996 112.13 191.789C112.13 191.06 112.448 190.377 113.106 189.762C115.012 187.963 121.999 177.645 122.09 177.553L122.657 177.941C122.362 178.373 115.533 188.418 113.582 190.263C113.083 190.741 112.834 191.243 112.834 191.789C112.834 192.7 113.582 193.429 113.582 193.429L113.106 193.93Z"
          fill="#BFCFDD"/>
    <path d="M150.041 190.286C147.909 188.737 145.708 186.186 143.507 182.678C141.851 180.082 140.808 177.895 140.808 177.872L141.42 177.576C141.466 177.667 145.549 186.14 150.45 189.716L150.041 190.286Z"
          fill="#BFCFDD"/>
    <path d="M107.004 203.793L106.324 203.77L106.528 197.324C106.46 197.233 106.392 197.119 106.346 197.028L105.938 196.367C105.915 196.344 105.915 196.322 105.893 196.299L105.439 195.524C105.325 195.342 105.212 195.16 105.121 194.978L105.053 194.864C104.962 194.727 104.894 194.591 104.826 194.454L104.713 194.272C104.599 194.089 104.486 193.884 104.395 193.702C104.373 193.679 104.373 193.657 104.35 193.634L104.214 193.383C104.146 193.27 104.1 193.178 104.032 193.065L103.987 192.973C103.896 192.791 103.805 192.632 103.715 192.45C103.601 192.245 103.511 192.085 103.42 191.903L103.397 191.88C103.102 191.311 102.853 190.787 102.603 190.308C102.217 189.511 101.877 188.691 101.582 187.871C101.514 187.666 101.469 187.484 101.423 187.279V187.234C101.401 187.165 101.401 187.097 101.401 187.006C101.401 186.937 101.401 186.869 101.378 186.801C101.378 185.548 100.924 181.334 100.493 177.599C99.8125 178.077 99.1546 178.1 98.7009 177.986C96.8406 177.553 95.3659 174.82 94.5946 172.406C93.914 170.333 92.462 164.274 91.4411 158.238L88.4691 156.325L88.4238 156.188C88.4238 156.166 88.0381 154.731 87.5163 152.271C87.176 150.654 86.8584 148.968 86.5634 147.26C86.4954 146.895 86.45 146.531 86.3819 146.166C86.3593 145.984 86.3139 145.802 86.2912 145.597C86.2231 145.21 86.1778 144.823 86.1097 144.435C86.087 144.23 86.0416 144.048 86.019 143.843C85.4064 139.47 84.9981 135.006 84.8392 130.61C84.8166 129.904 84.7939 129.152 84.7712 128.264C84.7712 127.74 84.7712 127.193 84.7712 126.669C84.7712 125.781 84.7712 125.006 84.7939 124.232C84.7939 123.754 84.8166 123.298 84.8392 122.911V122.774C84.8619 122.342 84.8846 121.932 84.9073 121.544V121.499C84.9073 121.476 84.9073 121.43 84.9073 121.362V121.339C84.93 120.952 84.9754 120.565 85.0207 120.178L85.0434 119.996C85.0888 119.608 85.1342 119.221 85.1795 118.857C85.1795 118.834 85.1795 118.811 85.1795 118.788V118.743C85.2249 118.356 85.293 117.991 85.3383 117.627V117.558C85.4064 117.194 85.4518 116.83 85.5198 116.465C85.5198 116.442 85.5199 116.42 85.5425 116.397V116.374V116.328C85.6106 115.987 85.6787 115.645 85.7467 115.303L85.7921 115.144C85.8601 114.825 85.9509 114.483 86.019 114.165L86.0416 114.051C86.1324 113.709 86.2005 113.39 86.2912 113.117L86.3139 113.049C86.4046 112.73 86.4954 112.411 86.5861 112.115L86.6088 112.069C86.6996 111.796 86.7903 111.5 86.9037 111.135L86.9264 111.067C87.0172 110.771 87.1306 110.497 87.2214 110.224L87.244 110.156C87.3348 109.882 87.4482 109.632 87.539 109.381L87.5617 109.313C87.8793 108.493 88.2423 107.719 88.6053 106.967C90.6924 102.799 92.9157 100.749 93.4602 100.271V92.2075L99.4722 93.3691C99.8352 92.7541 101.106 91.843 105.439 90.2258C108.297 89.1553 111.156 88.2898 111.179 88.2898L111.383 88.9503C106.006 90.5675 100.13 92.8908 100.039 93.8019L99.994 94.1663L94.1408 93.0274V100.589L94.0047 100.703C93.982 100.726 91.4865 102.708 89.1951 107.286C88.8321 107.992 88.4918 108.744 88.1969 109.518L88.1742 109.586C88.0608 109.837 87.97 110.11 87.8793 110.384C87.8566 110.429 87.8566 110.475 87.8339 110.497C87.7432 110.748 87.6524 111.021 87.5617 111.295C87.5617 111.34 87.539 111.386 87.5163 111.409C87.4029 111.727 87.3348 111.978 87.244 112.251L87.2214 112.32C87.1306 112.616 87.0399 112.935 86.9491 113.254L86.9264 113.322C86.8357 113.618 86.7676 113.937 86.6769 114.278L86.6542 114.392C86.5861 114.711 86.4954 115.03 86.4273 115.349L86.3819 115.508C86.3139 115.827 86.2458 116.146 86.1778 116.488C86.1778 116.533 86.1551 116.579 86.1551 116.625V116.647C86.087 116.989 86.0416 117.331 85.9736 117.695V117.763C85.9282 118.105 85.8601 118.492 85.8148 118.857C85.8148 118.902 85.8148 118.925 85.7921 118.971V118.993C85.7467 119.358 85.7013 119.745 85.656 120.132L85.6333 120.314C85.5879 120.679 85.5652 121.066 85.5425 121.453C85.5425 121.522 85.5425 121.613 85.5198 121.704C85.4972 122.091 85.4745 122.478 85.4518 122.888V123.025C85.4291 123.435 85.4064 123.868 85.4064 124.346C85.3837 125.098 85.3837 125.895 85.3837 126.76C85.3837 127.284 85.3837 127.831 85.3837 128.355C85.4064 129.243 85.4291 129.995 85.4518 130.678C85.6106 135.074 86.019 139.493 86.6315 143.843C86.6542 144.048 86.6769 144.253 86.7223 144.435C86.7903 144.823 86.8357 145.21 86.9037 145.597C86.9264 145.779 86.9718 145.961 86.9945 146.144C87.0625 146.508 87.1079 146.873 87.176 147.237C87.4709 148.945 87.7885 150.608 88.1061 152.202C88.5372 154.23 88.8775 155.551 88.9682 155.938L91.9629 157.874L91.9856 158.033C93.0065 164.092 94.4811 170.174 95.1391 172.269C96.0238 175.025 97.4758 177.098 98.769 177.394C99.3361 177.531 99.8806 177.326 100.425 176.756L100.924 176.232L101.015 176.961C101.696 182.86 101.99 185.821 101.99 186.892C101.99 186.937 101.99 186.983 101.99 187.029V187.074C101.99 187.097 101.99 187.142 102.013 187.165L102.036 187.234C102.081 187.393 102.127 187.575 102.172 187.735C102.444 188.532 102.785 189.329 103.148 190.103C103.374 190.582 103.624 191.106 103.919 191.652L103.942 191.675C104.032 191.857 104.123 192.04 104.236 192.222C104.327 192.404 104.418 192.563 104.509 192.746L104.531 192.791C104.531 192.814 104.554 192.837 104.554 192.837C104.599 192.928 104.668 193.042 104.713 193.133L104.849 193.383C104.872 193.406 104.872 193.452 104.894 193.474C104.985 193.657 105.099 193.839 105.212 194.021L105.325 194.203C105.394 194.34 105.484 194.477 105.552 194.613L105.62 194.727C105.734 194.909 105.825 195.092 105.938 195.274L106.392 196.026C106.414 196.048 106.437 196.094 106.437 196.117L106.845 196.754C106.936 196.891 107.004 197.005 107.095 197.142L107.14 197.233L107.004 203.793Z"
          fill="#040F1F"/>
    <path d="M165.943 153.387C165.943 153.387 171.252 147.624 173.203 150.676C175.154 153.728 173.634 161.746 173.634 161.746C173.634 161.746 174.133 153.66 171.865 153.41C169.596 153.159 167.872 159.696 165.286 159.514C162.699 159.332 165.943 153.387 165.943 153.387Z"
          fill="#9FB1BF"/>
    <path d="M165.604 161.723C165.604 161.723 168.009 159.058 169.597 160.333C171.185 161.609 168.735 164.411 169.234 166.347C169.733 168.283 165.74 174.569 165.604 172.793C165.468 171.016 169.234 166.916 165.014 166.552C160.794 166.187 165.604 161.723 165.604 161.723Z"
          fill="#9FB1BF"/>
</svg>
