<svg width="276" height="320" viewBox="0 0 276 320" fill="none" xmlns="http://www.w3.org/2000/svg">
    <path d="M0 0H276V320H0V0Z" fill="#D9DEE3"/>
    <rect y="22" width="22" height="22" fill="#EAEEF2"/>
    <rect y="44" width="22" height="22" fill="#EAEEF2"/>
    <path d="M166.186 146.756C166.186 146.756 169.993 141.834 172.023 143.018C174.053 144.202 174.814 144.805 173.453 149.217C172.092 153.628 173.453 158.225 171.423 161.87C169.393 165.515 167.04 171.389 164.087 171.133C161.134 170.878 161.549 155.323 161.549 155.323L166.186 146.756Z"
          fill="#BFCFDD"/>
    <path d="M166.67 152.745C166.67 152.745 170.591 156.181 170.73 157.969C170.868 159.757 171.376 161.405 168.7 161.916C166.024 162.427 166.808 165.491 164.64 165.352C162.471 165.213 166.67 152.745 166.67 152.745Z"
          fill="#304D60"/>
    <path d="M166.139 149.402C166.139 149.402 170.983 142.924 172.483 145.06C173.982 147.196 171.837 151.677 172.044 154.115C172.044 154.115 171.791 146.477 171.375 146.152C170.96 145.827 169.322 150.098 166.531 152.583C163.739 155.067 166.139 149.402 166.139 149.402Z"
          fill="#304D60"/>
    <path d="M90.955 144.109C90.955 144.109 87.2409 138.838 84.957 139.697C82.6731 140.556 82.0964 147.08 83.5267 153.813C84.957 160.523 87.3331 167.743 89.0172 169.02C90.7013 170.297 96.9531 170.204 96.9531 170.204L90.955 144.109Z"
          fill="#9FB1BF"/>
    <path d="M94.0003 155.833L88.6712 148.822C88.6712 148.822 90.9551 152.142 89.94 154.301C88.925 156.46 85.1185 157.876 87.4024 160.035C89.6863 162.195 88.8327 160.546 90.3322 163.727C91.8317 166.908 95.3845 163.727 95.3845 163.727L94.0003 155.833Z"
          fill="#304D60"/>
    <path d="M91.1178 147.08C91.1178 147.08 86.873 141.369 85.4888 142.159C84.1047 142.948 83.6433 147.406 84.8429 152.119C86.0425 156.832 87.3113 152.119 86.3655 148.241C85.4196 144.364 85.2351 141.416 87.3113 144.875C89.3876 148.334 87.8881 154.44 91.9944 155.253C96.1008 156.065 91.1178 147.08 91.1178 147.08Z"
          fill="#304D60"/>
    <path d="M97.9463 174.871C97.9463 174.871 101.176 196.463 100.991 200.688C100.807 204.914 102.699 218.774 102.699 218.774L128.536 232.031L160.073 196.463C160.073 196.463 159.888 182.509 160.073 176.38C160.257 170.251 97.9463 174.871 97.9463 174.871Z"
          fill="#E7F1FB"/>
    <path d="M160.094 196.463C160.094 196.463 159.91 182.509 160.094 176.38C160.14 175.15 157.626 174.36 153.635 173.873L151.166 182.254C151.166 182.254 152.873 200.712 147.567 206.725C142.261 212.738 126.713 220.748 112.986 216.917C109.964 216.081 130.45 226.784 135.779 223.905L160.094 196.463Z"
          fill="#BFCFDD"/>
    <path d="M150.337 188.383L97.9463 175.985C98.5922 180.466 100.991 197.043 100.83 200.665C100.715 203.103 101.314 208.744 101.822 213.086C106.828 217.497 111.65 220.957 112.342 218.774C113.864 213.991 114.626 211.832 126.529 211.832C138.433 211.832 150.337 188.383 150.337 188.383Z"
          fill="#1573FF"/>
    <path d="M99.0762 183.972C99.0762 183.972 129.874 203.219 137.533 201.849C137.533 201.849 128.259 208.907 121.5 208.396C114.74 207.886 100.899 189.08 99.0762 183.972Z"
          fill="#040F1F"/>
    <path d="M254.98 319.745C254.98 319.745 247.898 238.346 243.33 234.771C238.762 231.195 183.049 216.128 176.959 207.607C171.63 200.154 168.262 194.002 160.718 192.47C159.634 192.261 159.172 206.051 157.904 206.028C153.128 205.959 140.325 225.809 126.76 230.499C118.385 233.401 104.313 209.302 102.514 209.162C97.5767 208.768 94.9007 212.041 94.9007 212.041C94.9007 212.041 58.4508 228.247 45.2781 231.822C32.1054 235.398 25 319.814 25 319.814L254.98 319.745Z"
          fill="#040F1F"/>
    <path d="M99.9758 200.619C99.9758 200.619 100.23 214.131 98.1994 224.834C96.1693 235.537 88.441 291.188 98.1994 319.815H133.334C133.334 319.815 172.553 204.403 169.138 203.776L165.724 203.149L160.395 192.098C160.395 192.098 155.273 207.491 126.575 222.466C114.533 220.33 104.474 212.041 99.9758 200.619Z"
          fill="#9FB1BF"/>
    <path d="M103.666 241.573L103.436 240.738C103.389 240.529 98.1527 220.725 99.4676 209.279L100.16 209.348C99.0062 219.332 102.928 235.839 103.897 239.716C109.641 230.127 125.721 222.489 126.436 222.164L126.644 222.071L144.753 240.111C148.606 234.214 165.239 203.335 165.4 203.01L166 203.335C165.816 203.66 148.467 235.908 145.076 240.83L144.845 241.179L126.505 222.907C125.559 223.371 121.684 225.298 117.347 228.131C109.088 233.54 105.581 238.021 104.082 240.807L103.666 241.573Z"
          fill="#040F1F"/>
    <path d="M128.675 319.814L122.792 245.497L122.884 245.381L134.604 230.522L135.157 230.963L123.507 245.706L129.367 319.768L128.675 319.814Z"
          fill="#040F1F"/>
    <path d="M96.7686 313.592L96.0996 313.453C96.5149 311.526 106.527 266.114 108.396 260.797C110.172 255.805 115.27 245.079 115.939 243.709L110.933 232.31L111.556 232.031L116.678 243.709L116.608 243.849C116.562 243.965 110.887 255.736 109.019 261.029C107.173 266.3 96.8609 313.128 96.7686 313.592Z"
          fill="#040F1F"/>
    <path d="M91.6938 138.351C91.6938 138.351 90.748 154.231 91.6938 158.991C92.6397 163.75 95.8694 176.589 98.5224 182.509C101.175 188.43 116.009 204.101 123.022 205.076C130.035 206.051 145.63 199.527 150.567 193.607C155.504 187.687 163.671 171.621 165.378 164.748C167.085 157.876 166.9 154.417 167.085 148.496C167.27 142.576 167.085 115.993 167.085 115.993L157.788 99.3695L140.509 93.6349H109.181L97.2074 108.169L92.6397 123.817L91.6938 138.351Z"
          fill="#E7F1FB"/>
    <path d="M133.334 147.08C133.334 147.08 138.409 159.432 137.763 162.38C137.763 162.38 134.857 160.593 133.334 159.827C131.811 159.06 133.334 147.08 133.334 147.08Z"
          fill="#BFCFDD"/>
    <path d="M128.074 140.463C128.074 140.463 126.551 160.476 125.029 161.614C123.506 162.752 120.207 158.294 120.207 155.88C120.207 153.465 125.029 148.357 125.144 143.644C125.259 138.931 128.074 140.463 128.074 140.463Z"
          fill="#BFCFDD"/>
    <path d="M111.741 170.205C112.156 170.112 121.615 168.254 127.567 168.324C133.519 168.394 142.516 170.831 143.646 172.921C144.777 175.01 140.901 177.448 140.901 177.448L119.123 173.873C119.123 173.873 114.048 174.291 113.172 173.873C112.295 173.455 111.741 170.205 111.741 170.205Z"
          fill="#BFCFDD"/>
    <path d="M140.601 163.1C139.586 162.241 138.94 161.777 138.94 161.777C139.448 162.264 140.002 162.729 140.601 163.1Z"
          fill="#BFCFDD"/>
    <path d="M150.59 193.514C155.527 187.594 163.694 171.528 165.401 164.656C167.108 157.784 166.923 154.324 167.108 148.404C167.293 142.484 167.108 115.9 167.108 115.9L157.811 99.277L153.797 97.9536L152.989 98.4644C152.989 98.4644 161.664 108.819 163.163 124.398C164.663 139.976 158.065 145.107 158.065 145.107C158.065 145.107 161.779 158.921 152.966 163.216C147.084 166.072 142.793 164.47 140.578 163.1C144.015 166.002 151.582 173.409 151.144 182.185C150.59 193.073 131.073 194.977 131.696 203.916C138.894 201.873 147.222 197.554 150.59 193.514Z"
          fill="#BFCFDD"/>
    <path d="M122.814 157.969C122.814 157.969 112.433 167.488 113.24 171.83C114.048 176.171 125.882 174.453 125.882 174.453C125.882 174.453 124.89 168.463 126.413 166.768C126.413 166.768 121.176 168.208 120.299 164.818C119.423 161.428 120.369 159.246 122.814 157.969Z"
          fill="#BFCFDD"/>
    <path d="M122.815 157.969C122.815 157.969 118.04 159.943 115.548 164.563C113.057 169.183 119.701 167.999 121.546 168.695C123.392 169.392 126.783 167.395 126.783 167.395C126.783 167.395 120.001 166.466 119.793 162.705C119.585 158.944 122.815 157.969 122.815 157.969Z"
          fill="#9FB1BF"/>
    <path d="M125.167 126.696C125.167 126.696 129.597 126.812 131.742 124.398C133.888 121.983 134.533 97.1177 134.533 97.1177H139.286C139.286 97.1177 134.603 125.93 139.286 129.737L141.431 134.706C141.431 134.706 134.464 137.724 133.864 143.482C133.265 149.24 132.365 134.915 127.567 132.895C122.768 130.875 122.307 132.291 122.307 132.291L122.953 127.439L125.167 126.696Z"
          fill="white"/>
    <path d="M139.286 129.761C139.286 129.761 137.44 141.903 137.533 143.018C137.625 144.132 140.024 148.149 149.437 149.402C158.849 150.656 153.474 145.432 149.067 144.875C144.661 144.318 152.735 144.155 152.735 144.155C152.735 144.155 158.249 140.023 158.918 138.281C159.587 136.54 154.073 131.131 154.073 131.131L139.286 129.761Z"
          fill="#9FB1BF"/>
    <path d="M111.903 118.965C116.494 115.041 123.715 93.6349 123.715 93.6349H108.95L96.9773 108.169L92.4096 123.817L91.4868 138.351C91.4868 138.351 90.5409 154.231 91.4868 158.991C92.4326 163.75 95.6624 176.589 98.3154 182.509C100.968 188.43 115.802 204.101 122.815 205.076C127.106 205.657 134.604 203.451 140.925 200.293C107.52 209.743 108.443 182.904 108.443 174.105C108.443 165.306 100.461 158.039 100.83 153.07C101.199 148.102 104.36 142.158 104.36 142.158H106.413C106.413 142.158 119.424 141.74 116.194 143.458C112.965 145.176 119.101 153.093 119.101 153.093C119.101 153.093 122.285 148.125 122.931 145.06C123.576 141.996 122.308 132.314 122.308 132.314L122.931 127.462C123.6 122.61 107.312 122.865 111.903 118.965Z"
          fill="#9FB1BF"/>
    <path d="M112.111 124.165L111.719 123.608C120.162 117.502 125.907 95.6548 125.953 95.4226L126.622 95.6083C126.599 95.6548 125.168 101.227 122.677 107.495C119.309 115.923 115.756 121.542 112.111 124.165Z"
          fill="#9FB1BF"/>
    <path d="M102.537 179.514C100.783 172.108 93.8395 163.03 93.3781 154.672C92.9167 146.314 101.176 138.049 101.176 138.049C101.176 138.049 99.5377 135.681 99.6069 125.558C99.6761 115.436 111.695 96.003 111.695 96.003L109.988 93.6349H108.95L96.977 108.169L92.4092 123.84L91.4633 138.374C91.4633 138.374 90.5175 154.231 91.4633 159.014C92.4092 163.796 95.6389 176.612 98.315 182.533C100.645 187.71 112.203 200.293 119.793 204.055C108.212 197.438 104.29 186.921 102.537 179.514Z"
          fill="#304D60"/>
    <path d="M91.3014 150.911C91.3014 150.911 91.6936 132.802 97.7609 127.067C97.7609 127.067 94.7157 115.97 98.5222 109.214C102.329 102.457 107.635 96.5836 111.695 95.9567C115.755 95.3299 127.659 98.766 135.387 98.6267C143.116 98.4874 152.989 98.5106 152.989 98.5106C152.989 98.5106 160.21 106.799 161.986 108.958C163.763 111.117 165.401 118.64 165.539 120.683C165.678 122.726 164.27 126.928 165.539 131.27C166.808 135.611 166.808 148.473 166.808 148.473C166.808 148.473 168.838 140.696 168.953 135.1C169.069 129.505 169.715 117.897 166.808 110.374C163.901 102.852 158.826 94.0529 151.098 90.1061C143.369 86.1592 139.309 87.0414 132.85 87.1807C126.39 87.32 115.617 87.0414 113.217 89.0845C110.818 91.1276 101.314 96.8622 96.7458 104.64C92.1781 112.418 90.0326 120.938 89.4097 128.089C88.7869 135.24 88.7638 141.601 89.4097 142.994C90.0557 144.387 91.3014 150.911 91.3014 150.911Z"
          fill="#318FFF"/>
    <path d="M139.286 129.761C139.286 129.761 139.932 134.59 141.432 134.729C142.931 134.868 151.559 133.197 153.197 134.079C154.835 134.961 160.533 140.835 161.294 140.464C162.056 140.092 156.98 131.804 154.835 130.643C152.69 129.482 139.286 129.761 139.286 129.761Z"
          fill="#318FFF"/>
    <path d="M122.953 127.462C122.953 127.462 122.953 132.059 122.308 132.314C121.662 132.57 109.781 131.037 107.751 132.314C105.721 133.591 102.445 136.006 101.176 138.049C99.907 140.092 102.56 131.803 104.982 130.527C107.405 129.25 117.002 127.462 122.953 127.462Z"
          fill="#318FFF"/>
    <path d="M138.063 143.18C138.063 143.18 142.447 139.535 146.668 140.626C150.89 141.717 153.682 145.037 153.682 145.037C153.682 145.037 148.03 145.385 143.716 145.037C139.402 144.689 138.063 143.18 138.063 143.18Z"
          fill="#EAEEF2"/>
    <path d="M121.776 142.808C121.776 142.808 118.408 138.072 113.494 138.327C108.58 138.583 105.143 142.251 105.143 142.251C105.143 142.251 111.371 144.642 121.776 142.808Z"
          fill="#EAEEF2"/>
    <path d="M116.655 140.719C116.655 139.93 116.378 139.187 115.87 138.606C115.086 138.398 114.302 138.305 113.494 138.351C112.595 138.398 111.718 138.56 110.864 138.815C109.826 140.255 110.126 142.252 111.533 143.32C111.58 143.366 111.649 143.389 111.695 143.436C112.71 143.505 113.84 143.528 115.063 143.505C116.055 142.902 116.655 141.857 116.655 140.719Z"
          fill="#318FFF"/>
    <path d="M148.883 141.439C148.168 141.09 147.43 140.835 146.692 140.626C145.584 140.347 144.454 140.347 143.347 140.603C142.285 141.973 142.516 143.946 143.831 145.06C145.077 145.153 146.438 145.2 147.753 145.2C148.929 144.341 149.391 142.808 148.883 141.439Z"
          fill="#318FFF"/>
    <path d="M145.885 144.48C146.802 144.48 147.546 143.732 147.546 142.809C147.546 141.885 146.802 141.137 145.885 141.137C144.967 141.137 144.224 141.885 144.224 142.809C144.224 143.732 144.967 144.48 145.885 144.48Z"
          fill="#040F1F"/>
    <path d="M113.448 142.576C114.365 142.576 115.109 141.828 115.109 140.905C115.109 139.982 114.365 139.233 113.448 139.233C112.531 139.233 111.787 139.982 111.787 140.905C111.787 141.828 112.531 142.576 113.448 142.576Z"
          fill="#040F1F"/>
    <path d="M153.844 142.39C151.606 139.79 147.154 137.909 144.547 137.84C144.524 137.84 144.478 137.84 144.455 137.84C141.779 137.84 138.341 141.346 138.295 141.392L137.811 140.904C137.972 140.742 141.594 137.05 144.57 137.143C147.384 137.236 151.975 139.163 154.374 141.926L153.844 142.39Z"
          fill="#BFCFDD"/>
    <path d="M104.636 141.787L104.105 141.346C104.175 141.253 105.928 139.164 107.727 138.049C109.734 136.795 114.118 135.89 118.016 136.563C122.123 137.26 123.945 141.253 124.014 141.439L123.392 141.717C123.369 141.671 121.638 137.887 117.901 137.26C113.818 136.563 109.642 137.678 108.096 138.653C106.389 139.698 104.659 141.764 104.636 141.787Z"
          fill="#304D60"/>
    <path d="M153.428 145.27C150.59 142.321 147.661 140.812 144.731 140.812H144.708C140.878 140.812 138.341 143.389 138.317 143.412L137.833 142.925C137.948 142.809 140.601 140.115 144.731 140.115C144.731 140.115 144.731 140.115 144.754 140.115C147.891 140.115 151.006 141.694 153.959 144.782L153.428 145.27Z"
          fill="#040F1F"/>
    <path d="M121.477 142.994C121.454 142.948 119.147 139.326 115.04 138.699C111.995 138.235 108.742 139.535 105.351 142.507L104.89 141.973C108.442 138.862 111.88 137.515 115.133 138.003C119.562 138.676 121.938 142.46 122.03 142.6L121.477 142.994Z"
          fill="#040F1F"/>
    <path d="M116.216 174.778V177.889L123.137 182.254L135.64 180.513L138.732 178.725L138.939 176.217L116.216 174.778Z"
          fill="white"/>
    <path d="M137.532 176.427C137.532 176.427 137.025 179.236 136.863 179.84L140.439 177.495L137.532 176.427Z"
          fill="#304D60"/>
    <path d="M116.817 174.337C116.817 174.337 116.009 176.566 116.563 177.75L113.218 175.103L116.817 174.337Z"
          fill="#304D60"/>
    <path d="M113.218 175.08C113.218 175.08 120.946 179.63 123.253 180.211C125.56 180.791 131.835 180.722 133.011 180.42C134.188 180.118 139.978 177.518 140.44 177.471L140.901 177.448C140.901 177.448 136.333 182.254 132.873 183.136C129.413 184.018 124.637 184.204 121.684 183.438C118.731 182.672 113.218 175.08 113.218 175.08Z"
          fill="#9FB1BF"/>
    <path d="M112.71 174.453C112.71 174.453 113.102 175.266 122.515 175.776C131.927 176.287 138.779 177.727 140.924 177.471C143.069 177.216 143.669 176.705 143.669 176.705C143.669 176.705 138.271 174.407 134.118 174.105C130.243 173.826 129.089 174.36 123.853 173.222C123.068 173.06 121.038 172.851 120.254 172.967C117.947 173.315 114.463 174.732 112.71 174.453Z"
          fill="#304D60"/>
    <path d="M140.302 177.843C139.148 177.843 137.303 177.611 134.927 177.309C131.766 176.914 127.452 176.38 122.469 176.102C118.87 175.916 112.78 175.452 112.388 174.593L113.011 174.291C112.988 174.221 112.941 174.198 112.941 174.198C112.988 174.221 113.979 174.941 122.515 175.405C127.521 175.684 131.858 176.218 135.019 176.612C137.856 176.961 139.887 177.216 140.879 177.1C142.839 176.868 143.439 176.427 143.439 176.403L143.878 176.937C143.808 177.007 143.139 177.518 140.948 177.773C140.763 177.82 140.556 177.843 140.302 177.843Z"
          fill="#040F1F"/>
    <path d="M150.752 91.94C150.752 91.94 144.246 94.2385 140.371 95.0279C136.495 95.8172 137.579 91.2667 137.579 91.2667C135.734 92.9616 126.275 95.5154 126.275 95.5154L130.497 91.7775C127.544 92.4508 122.399 89.5719 116.655 91.1042C110.911 92.6365 105.928 99.4391 105.928 99.4391C107.935 97.5353 109.942 96.2816 111.695 96.003C115.755 95.3529 127.659 98.8122 135.387 98.6729C143.116 98.5336 152.99 98.5568 152.99 98.5568L152.874 95.794C149.575 96.537 150.752 91.94 150.752 91.94Z"
          fill="#040F1F"/>
    <path d="M93.0091 127.137C92.64 125.86 94.5317 121.588 94.5317 121.588C93.0322 122.61 91.1405 124.792 89.5256 126.858C89.4795 127.276 89.4333 127.671 89.4102 128.089C88.7643 135.217 88.7643 141.601 89.4102 142.994C90.0562 144.387 91.3019 150.888 91.3019 150.888C91.3019 150.888 91.6941 132.779 97.7614 127.044C97.3923 125.582 97.1155 124.072 96.9078 122.563C94.5317 124.026 93.0091 127.137 93.0091 127.137Z"
          fill="#040F1F"/>
    <path d="M101.175 200.712L100.483 200.688C100.598 198.344 99.6063 190.38 98.7527 184.112C98.4759 183.647 98.2221 183.183 98.0145 182.695C96.5381 179.399 94.9924 174.291 93.9543 170.483C91.3474 170.298 89.6172 169.926 88.8328 169.322C87.0104 167.953 84.6342 160.523 83.2039 153.906C82.4887 150.61 82.258 147.266 82.5118 144.55C82.7886 141.694 83.6191 139.86 84.8418 139.396C85.8569 139.024 87.1488 139.558 88.6944 141.021C88.6714 140.835 88.6714 140.626 88.6483 140.417C88.6252 140.162 88.6252 139.883 88.6021 139.605V139.419C88.6021 139.187 88.5791 138.955 88.5791 138.699V137.747C88.5791 137.074 88.5791 136.354 88.6021 135.611C88.6021 135.24 88.6252 134.845 88.6483 134.451C88.7175 132.431 88.8559 130.295 89.0635 128.089C89.0866 127.718 89.1327 127.3 89.1789 126.859C89.8018 121.24 91.5781 112.812 96.4458 104.501C100.114 98.2554 107.035 93.2405 110.749 90.5474C111.741 89.8276 112.502 89.2704 112.987 88.8757L113.425 89.4097C112.917 89.8276 112.133 90.408 111.141 91.1278C107.473 93.7977 100.621 98.7429 97.0225 104.872C92.201 113.091 90.4708 121.426 89.8479 126.951C89.8018 127.393 89.7556 127.787 89.7326 128.159C89.548 130.341 89.4096 132.477 89.3173 134.474C89.2942 134.868 89.2942 135.24 89.2712 135.611C89.2481 136.354 89.2481 137.074 89.2481 137.724V138.699C89.2481 138.931 89.2481 139.164 89.2712 139.396V139.582C89.2712 139.86 89.2942 140.139 89.3173 140.371C89.3404 140.626 89.3404 140.882 89.3634 141.114C89.3865 141.369 89.4096 141.648 89.4557 141.903L89.6172 142.971L88.879 142.182C87.2641 140.464 85.903 139.721 85.0494 140.023C82.9963 140.789 82.4426 147.197 83.8268 153.721C85.3955 161.034 87.7486 167.628 89.1789 168.719C89.871 169.23 91.6473 169.601 94.1619 169.764L94.4157 169.787L94.4849 170.019C95.523 173.826 97.0917 179.05 98.5912 182.37C98.8219 182.835 99.0526 183.322 99.3295 183.763L99.3756 183.833V183.903C100.275 190.241 101.267 198.297 101.175 200.712Z"
          fill="#040F1F"/>
    <path d="M124.523 205.517C123.969 205.517 123.439 205.494 122.954 205.425L123.046 204.728C129.921 205.657 145.447 199.202 150.268 193.375C154.259 188.592 159.958 177.796 162.957 170.553L163.187 169.972L163.556 170.483C163.672 170.646 163.856 170.762 164.064 170.785C166.256 170.971 168.286 167.024 169.924 163.866C170.316 163.1 170.685 162.38 171.077 161.707L171.677 162.055C171.308 162.705 170.939 163.425 170.547 164.191C168.724 167.72 166.648 171.714 163.995 171.481C163.787 171.458 163.58 171.388 163.418 171.272C160.35 178.563 154.767 189.103 150.822 193.839C146.093 199.481 132.205 205.517 124.523 205.517Z"
          fill="#304D60"/>
    <path d="M139.286 111.907C139.286 111.907 137.695 118.338 139.54 122.238C141.386 126.139 149.852 124.096 154.535 122.61C159.218 121.124 156.242 116.434 149.968 114.066C143.693 111.698 139.886 107.937 139.286 111.907Z"
          fill="white"/>
    <path d="M101.43 138.281L100.945 137.794C101.153 137.585 106.228 132.384 108.281 131.734C110.312 131.084 121.869 131.92 122.354 131.943L122.308 132.64C118.201 132.338 110.012 131.92 108.489 132.384C106.574 132.988 101.476 138.235 101.43 138.281Z"
          fill="#040F1F"/>
    <path d="M161.295 140.812C160.234 140.719 157.719 138.56 154.813 135.936C154.005 135.217 153.313 134.59 153.013 134.381C152.367 133.916 146.646 134.358 141.501 135.077L141.409 134.381C143.209 134.125 152.229 132.941 153.428 133.8C153.774 134.056 154.443 134.636 155.274 135.402C157.073 137.028 160.418 140.023 161.341 140.092L161.295 140.812Z"
          fill="#040F1F"/>
    <path d="M125.79 168.069C125.79 168.069 124.314 172.642 126.344 173.13C128.374 173.618 130.934 173.501 129.85 167.604C128.766 161.707 125.79 168.069 125.79 168.069Z"
          fill="#E7F1FB"/>
    <path d="M122.815 157.969C122.815 157.969 118.686 161.034 120.277 163.332C121.869 165.631 125.607 164.772 126.783 167.418C126.783 167.418 121.731 167.929 119.908 165.468C118.086 163.007 119.678 158.735 122.815 157.969Z"
          fill="#304D60"/>
    <path d="M137.233 158.805C137.233 158.805 139.078 166.025 135.041 166.025C131.004 166.025 129.712 167.813 129.712 167.813C129.712 167.813 133.08 166.536 135.71 166.954C138.34 167.372 138.663 160.5 137.233 158.805Z"
          fill="#304D60"/>
    <path d="M138.94 154.974C138.94 154.974 147.292 157.83 152.413 156.182C157.534 154.533 156.842 161.359 151.652 163.309C146.461 165.259 139.333 162.45 138.94 154.974Z"
          fill="white"/>
    <path d="M130.128 161.777C130.128 161.777 132.481 164.632 131.097 165.7C129.712 166.768 128.859 165.677 128.213 165.143C127.567 164.609 130.128 161.777 130.128 161.777Z"
          fill="white"/>
    <path d="M121.546 184.181C121.546 184.181 133.957 183.786 132.573 186.085C131.189 188.383 131.443 191.935 129.274 191.309C127.106 190.682 123.068 191.309 122.423 190.426C121.777 189.544 121.546 184.181 121.546 184.181Z"
          fill="#BFCFDD"/>
    <path d="M115.939 194.373C115.939 194.373 122.399 189.776 129.735 192.725C137.071 195.674 137.071 196.556 137.579 197.693C138.086 198.831 125.928 194.257 120.992 196.3C116.055 198.343 112.64 197.043 115.939 194.373Z"
          fill="#BFCFDD"/>
    <path d="M118.316 196.974C118.316 196.974 124.844 193.956 132.55 196.649C140.255 199.342 128.766 201.385 124.475 200.689C120.807 200.108 115.916 198.251 118.316 196.974Z"
          fill="white"/>
    <path d="M117.671 155.763C117.671 155.763 107.566 158.828 107.82 162.705C108.074 166.583 111.004 163.541 115.11 161.103C119.216 158.666 117.671 155.763 117.671 155.763Z"
          fill="white"/>
    <path d="M145.284 178.516H144.592C144.592 166.211 137.694 162.728 137.625 162.682L137.925 162.055C138.202 162.218 145.284 165.793 145.284 178.516Z"
          fill="#304D60"/>
    <path d="M110.98 177.332C110.796 166.745 119.516 160.848 119.608 160.802L119.978 161.382C119.885 161.428 111.488 167.117 111.673 177.332H110.98Z"
          fill="#304D60"/>
    <path d="M167.131 148.497L166.439 148.473C166.439 148.381 166.785 139.651 165.54 132.965C164.455 127.207 164.617 125.674 164.963 122.633C165.032 122.053 165.101 121.402 165.17 120.66C165.586 116.341 161.964 109.678 161.687 109.167L152.713 98.7428L153.243 98.2784L162.264 108.749L162.287 108.772C162.448 109.074 166.324 116.016 165.886 120.706C165.816 121.449 165.747 122.099 165.678 122.679C165.332 125.767 165.17 127.16 166.232 132.802C167.5 139.605 167.154 148.427 167.131 148.497Z"
          fill="#040F1F"/>
    <path d="M147.822 320L147.223 319.628C162.079 295.39 171.93 272.057 177.582 256.757C183.165 241.62 185.864 231.126 186.302 229.338L176.29 224.439L184.711 218.681L176.706 207.793L177.259 207.375L185.703 218.844L177.674 224.346L187.133 228.966L187.064 229.245C187.041 229.361 184.388 240.366 178.251 256.989C172.599 272.336 162.725 295.715 147.822 320Z"
          fill="#1573FF"/>
    <path d="M90.9556 319.907C81.6816 293.602 78.0597 271.152 76.6525 256.943C75.1299 241.55 75.822 232.217 75.822 232.147L75.845 231.938L88.2795 226.784L79.1209 219.053L79.5592 218.519L89.5945 226.993L76.491 232.426C76.3987 233.888 75.9373 242.85 77.3446 256.92C78.7518 271.082 82.3506 293.463 91.6015 319.698L90.9556 319.907Z"
          fill="#1573FF"/>
</svg>
