<svg width="105" height="88" viewBox="0 0 105 88" fill="none" xmlns="http://www.w3.org/2000/svg">
    <path d="M26.3281 29.3129H47.7355V27.6788C47.7678 25.2911 48.7403 23.0126 50.4421 21.3375C52.1439 19.6625 54.4376 18.7262 56.8255 18.7318H82.0118C78.8048 -0.326471 67.0593 0.00035939 67.0593 0.00035939H10.6403C11.6821 0.00035939 26.3281 0.613165 26.3281 29.3129Z"
          fill="#1673FF"/>
    <path d="M47.7348 29.3134H3L12.9275 85.6507H97.4742L96.0443 77.4799L87.5468 29.2725L87.2404 27.5567C86.8033 25.0732 85.505 22.8231 83.5736 21.2018C81.6423 19.5805 79.2013 18.6917 76.6797 18.6914H58.4589C55.6323 18.6913 52.92 19.8071 50.9117 21.7962C48.9035 23.7853 47.7617 26.4869 47.7348 29.3134Z"
          stroke="#040F1F" stroke-width="4"/>
    <path d="M97.4746 85.6504L102.969 26.4125C103.061 25.4407 102.948 24.4606 102.638 23.535C102.328 22.6094 101.828 21.7588 101.17 21.0376C100.513 20.3164 99.7116 19.7406 98.8183 19.3471C97.9251 18.9536 96.9595 18.751 95.9835 18.7524H93.7978"
          stroke="#040F1F" stroke-width="4"/>
    <path d="M32.1281 42.4678L47.4891 57.073" stroke="#040F1F" stroke-width="4"/>
    <path d="M58.5819 41.7734L36.3983 72.3729" stroke="#040F1F" stroke-width="4"/>
    <path d="M53.3522 62.6504L62.8711 71.6791" stroke="#040F1F" stroke-width="4"/>
</svg>
