<svg width="32" height="30" viewBox="0 0 32 30" fill="none" xmlns="http://www.w3.org/2000/svg">
    <path d="M25.0733 15.9207C25.0867 15.5743 25.023 15.2293 24.8869 14.9107C24.7508 14.5922 24.5456 14.3081 24.2864 14.0793C24.0318 13.8503 23.7519 13.6514 23.4522 13.4866C23.1138 13.3127 22.7518 13.1467 22.3741 12.9808C22.0675 12.8699 21.7864 12.6978 21.5478 12.475C21.4584 12.3773 21.3894 12.2626 21.3448 12.1378C21.3002 12.0129 21.2809 11.8804 21.2881 11.7479C21.2708 11.494 21.3495 11.2428 21.5084 11.0446C21.5879 10.9579 21.6857 10.8903 21.7947 10.8465C21.9036 10.8028 22.0209 10.784 22.138 10.7917C22.274 10.7825 22.4101 10.809 22.5329 10.8686C22.6557 10.9282 22.7609 11.0188 22.8384 11.1315C23.0197 11.4274 23.105 11.7726 23.0823 12.1194H25.1599C25.1851 11.4192 24.9557 10.7338 24.5146 10.191C24.1507 9.76869 23.6632 9.47271 23.1217 9.34544V7.93872H21.3274V9.30592C20.7849 9.39767 20.2813 9.64779 19.8794 10.0251C19.649 10.2453 19.4675 10.5119 19.3468 10.8074C19.2261 11.103 19.1689 11.4208 19.179 11.74C19.1721 12.1028 19.239 12.4632 19.3757 12.799C19.5095 13.0982 19.7022 13.367 19.9424 13.5893C20.2064 13.8261 20.5033 14.0231 20.8238 14.1741C21.1595 14.3427 21.5294 14.5087 21.9334 14.672C22.2455 14.7836 22.53 14.9616 22.7675 15.1936C22.9468 15.4158 23.0342 15.6988 23.0115 15.9839C23.0194 16.1091 23.0019 16.2347 22.9599 16.3529C22.918 16.4711 22.8525 16.5794 22.7675 16.6714C22.6818 16.7559 22.5794 16.8214 22.4669 16.8636C22.3543 16.9058 22.2342 16.9238 22.1144 16.9164C21.9497 16.9265 21.7848 16.8991 21.6322 16.8361C21.4795 16.7731 21.3431 16.6763 21.233 16.5529C20.9939 16.2278 20.8844 15.8247 20.9261 15.4228H18.8564C18.8405 15.973 18.968 16.5178 19.2262 17.0034L23.1059 18.2757C23.1059 18.2757 23.1531 18.2757 23.1768 18.2757C23.6411 18.1715 24.0683 17.942 24.4123 17.6119C24.6278 17.3875 24.7971 17.1226 24.9105 16.8324C25.0239 16.5422 25.0793 16.2324 25.0733 15.9207Z"
          fill="#1673FF"/>
    <path d="M13.1351 13.3838C13.1751 12.2045 13.4483 11.0449 13.9387 9.9726C14.4292 8.90028 15.1271 7.93662 15.9919 7.13771C16.8567 6.33881 17.8711 5.7206 18.976 5.31908C20.0809 4.91756 21.2543 4.74074 22.4279 4.7989C23.6016 4.85707 24.7519 5.14907 25.8121 5.65791C26.8723 6.16674 27.8211 6.88225 28.6034 7.76279C29.3856 8.64334 29.9857 9.67132 30.3686 10.7869C30.7515 11.9025 30.9096 13.0835 30.8338 14.2611C30.7686 15.5978 30.397 16.9014 29.7478 18.0703"
          stroke="#040F1F" stroke-width="2"/>
    <path d="M7.16945 10.4361C9.76416 10.4361 11.8676 8.32373 11.8676 5.71804C11.8676 3.11234 9.76416 1 7.16945 1C4.57474 1 2.47131 3.11234 2.47131 5.71804C2.47131 8.32373 4.57474 10.4361 7.16945 10.4361Z"
          stroke="#040F1F" stroke-width="2"/>
    <path d="M1 20.457L6.6897 16.4423C7.75499 15.6895 8.9802 15.1962 10.2683 15.0014C11.5564 14.8066 12.8719 14.9157 14.1107 15.3201L23.1056 18.2679C23.3864 18.351 23.6246 18.5392 23.7711 18.7936C23.9175 19.0481 23.961 19.3493 23.8926 19.6351L23.8218 19.9196C23.7584 20.1763 23.6087 20.4031 23.3978 20.5615C23.187 20.72 22.928 20.8003 22.6649 20.7889L16.4401 20.5202C16.4401 20.5202 21.6734 25.1829 29.2124 20.0381C29.3815 19.9223 29.5796 19.8565 29.7841 19.8481C29.9886 19.8397 30.1913 19.8892 30.3693 19.9907V19.9907C30.5447 20.0825 30.6942 20.2174 30.8037 20.3828C30.9133 20.5483 30.9794 20.7388 30.9959 20.9368C31.0124 21.1348 30.9788 21.3338 30.8981 21.5152C30.8174 21.6966 30.6923 21.8545 30.5345 21.9744L26.3794 25.096C25.5687 25.6995 24.5869 26.0263 23.5778 26.0285H17.8409C17.2625 26.0269 16.6892 25.9198 16.1489 25.7124L8.6807 22.8121L1 29"
          stroke="#040F1F" stroke-width="2"/>
</svg>
