<svg width="28" height="30" viewBox="0 0 28 30" fill="none" xmlns="http://www.w3.org/2000/svg">
    <path d="M22.1391 4.16626C22.5979 7.76917 22.826 11.3983 22.8219 15.031C22.8201 19.7108 22.4403 24.3827 21.6865 29H24.6325C25.2769 9.87025 27.3866 7.44896 28.0004 4.16626H22.1391Z"
          fill="#1673FF"/>
    <path d="M2 1H21.5555C22.3142 5.62983 22.6965 10.3148 22.6986 15.0078C22.6939 19.6878 22.3116 24.3596 21.5555 28.9767H2C2.89928 24.1154 3.32837 19.1771 3.2812 14.2317C3.25491 11.3228 3.06023 8.418 2.69814 5.53215"
          stroke="#040F1F" stroke-width="2"/>
    <path d="M6.68799 9.71509L8.36045 11.4146L11.5366 8.20178" stroke="#040F1F" stroke-width="2"/>
    <path d="M14.1824 9.80823H19.2842" stroke="#040F1F" stroke-width="2"/>
    <path d="M6.68799 18.5233L8.36045 20.2151L11.5366 17.0022" stroke="#040F1F" stroke-width="2"/>
    <path d="M14.1824 18.6086H19.2842" stroke="#040F1F" stroke-width="2"/>
</svg>
