<svg width="32" height="32" viewBox="0 0 32 32" fill="none" xmlns="http://www.w3.org/2000/svg">
    <path d="M23.0337 23.0338C27.9857 18.0818 28.8509 10.9184 24.9663 7.03376C21.0817 3.14915 13.9182 4.01439 8.96629 8.96633C4.01434 13.9183 3.1491 21.0817 7.03372 24.9663C10.9183 28.8509 18.0818 27.9857 23.0337 23.0338Z"
          stroke="#040F1F" stroke-width="2"/>
    <path d="M13.1512 30.0061C17.1064 31.4874 22.3355 30.0801 26.2092 26.2064C31.1643 21.2514 32.0309 14.0891 28.1424 10.208L24.9427 7.0083"
          stroke="#040F1F" stroke-width="2"/>
    <path d="M12.3791 8.8811C11.6896 9.34297 11.0471 9.87138 10.4608 10.4587C6.476 14.4435 5.77977 20.2059 8.90539 23.3241L16.3861 15.8434L12.3791 8.8811Z"
          fill="#1673FF"/>
    <path d="M15.163 8.41094C17.9344 7.4089 20.7469 7.96492 22.3577 10.0794C24.6532 13.1034 23.6171 18.1991 20.043 21.463C17.2002 24.0529 13.613 24.7139 11.1084 23.3187"
          stroke="#040F1F" stroke-width="2"/>
    <path d="M27.2592 16.6179L30.1605 19.5192" stroke="#040F1F" stroke-width="2"/>
    <path d="M23.1431 28.6063L21.3433 26.8065" stroke="#040F1F" stroke-width="1.5"/>
</svg>
