<svg width="30" height="31" viewBox="0 0 30 31" fill="none" xmlns="http://www.w3.org/2000/svg">
    <path d="M9.84909 9.342C9.63556 9.16339 9.39882 9.01157 9.14467 8.89027C8.86765 8.75475 8.58271 8.62676 8.27403 8.49876C8.02534 8.41074 7.79689 8.2778 7.60127 8.10726C7.53025 8.03328 7.47547 7.94656 7.44013 7.85219C7.4048 7.75781 7.38962 7.65768 7.39548 7.55765C7.37927 7.36126 7.44463 7.16665 7.57753 7.01557C7.64049 6.94813 7.71893 6.89539 7.80678 6.86144C7.89462 6.8275 7.98951 6.81325 8.08408 6.81982C8.19384 6.81284 8.30359 6.83353 8.40225 6.87979C8.50092 6.92606 8.58501 6.99627 8.64603 7.08333C8.7933 7.30837 8.86251 7.57173 8.8439 7.83622H10.5219C10.5545 7.29074 10.3709 6.75346 10.0074 6.33044C9.71156 6.01443 9.31811 5.79566 8.88348 5.70554V4.62891H7.45089V5.70554C7.01408 5.78098 6.60826 5.97138 6.27949 6.25515C6.09494 6.42415 5.9496 6.628 5.85282 6.85362C5.75604 7.07923 5.70995 7.32161 5.71753 7.56518C5.71048 7.84373 5.76439 8.12063 5.87583 8.3783C5.98114 8.60403 6.13795 8.80464 6.33489 8.96556C6.54637 9.14668 6.78348 9.29874 7.03931 9.41729C7.31897 9.54779 7.61974 9.67578 7.94161 9.80126C8.19612 9.88598 8.42833 10.0221 8.62229 10.2003C8.75765 10.368 8.82507 10.5765 8.81225 10.7876C8.8221 10.9799 8.75412 11.1685 8.62229 11.3146C8.55211 11.3788 8.46884 11.4286 8.37764 11.4609C8.28643 11.4933 8.18921 11.5076 8.09199 11.5028C7.95881 11.5109 7.82545 11.49 7.70202 11.4417C7.57859 11.3935 7.46835 11.3191 7.37965 11.2242C7.19187 10.9897 7.10169 10.6975 7.12638 10.4036H5.45634C5.42604 10.9797 5.63335 11.5443 6.03412 11.9771C6.41196 12.348 6.91199 12.5845 7.45089 12.6472V13.6109H8.88348V12.602C9.28374 12.5247 9.65202 12.3391 9.94407 12.0675C10.1243 11.8965 10.2653 11.6918 10.3579 11.4663C10.4506 11.2407 10.4929 10.9994 10.4823 10.7574C10.4909 10.4756 10.4342 10.1954 10.3161 9.93679C10.2031 9.71121 10.0444 9.50908 9.84909 9.342Z"
          fill="#1673FF"/>
    <path d="M7.98883 15.7718C11.8487 15.7718 14.9777 12.7953 14.9777 9.12373C14.9777 5.45213 11.8487 2.47571 7.98883 2.47571C4.12901 2.47571 1 5.45213 1 9.12373C1 12.7953 4.12901 15.7718 7.98883 15.7718Z"
          stroke="#040F1F" stroke-width="2"/>
    <path d="M13.4815 1H25.797L23.1456 19.6881L27.0001 19.786L15.4285 29L7.02295 19.2815L10.8775 19.3794"
          stroke="#040F1F" stroke-width="2"/>
</svg>
