<svg width="24" height="29" viewBox="0 0 24 29" fill="none" xmlns="http://www.w3.org/2000/svg">
    <path d="M15.5299 5.99791C15.5299 6.88058 15.1581 7.7271 14.4961 8.35124C13.8342 8.97538 12.9364 9.32602 12.0003 9.32602C11.0641 9.32602 10.1663 8.97538 9.5044 8.35124C8.84246 7.7271 8.47058 6.88058 8.47058 5.99791C8.47058 4.16196 12.0003 0 12.0003 0C12.0003 0 15.5299 4.16196 15.5299 5.99791Z"
          fill="#1673FF"/>
    <path d="M5.11176 9.32605H18.8891V16.882C18.8891 18.5251 18.1969 20.1009 16.9646 21.2628C15.7324 22.4246 14.0611 23.0774 12.3185 23.0774H11.6901C9.9475 23.0774 8.27623 22.4246 7.044 21.2628C5.81177 20.1009 5.11951 18.5251 5.11951 16.882V9.32605H5.11176Z"
          stroke="#040F1F" stroke-width="2"/>
    <path d="M12.0004 23.0773C10.1748 23.0773 8.4238 22.394 7.13214 21.1775C5.84049 19.961 5.11381 18.3107 5.11176 16.5894"
          stroke="#040F1F" stroke-width="2"/>
    <path d="M12.0007 20.6489C10.8582 20.6489 9.76226 20.2214 8.9536 19.4603C8.14495 18.6992 7.68962 17.6667 7.68756 16.5894"
          stroke="#040F1F" stroke-width="2"/>
    <path d="M20.9445 9.32605H23.0002V13.6636C23.0002 14.1727 22.8939 14.6768 22.6873 15.1471C22.4806 15.6175 22.1778 16.0448 21.796 16.4048C21.4142 16.7648 20.961 17.0503 20.4621 17.2452C19.9633 17.44 19.4287 17.5403 18.8887 17.5403V17.5403"
          stroke="#040F1F" stroke-width="2"/>
    <path d="M5.11152 9.32605H1.00003V13.6636C0.997987 14.1739 1.10283 14.6796 1.30853 15.1516C1.51424 15.6236 1.81677 16.0527 2.19876 16.4143C2.58075 16.7758 3.03468 17.0627 3.53453 17.2584C4.03437 17.4541 4.57028 17.5549 5.11152 17.5549V17.5549"
          stroke="#040F1F" stroke-width="2"/>
    <path d="M12.0002 24.6353V27.9999" stroke="#040F1F" stroke-width="2"/>
    <path d="M5.11176 28H18.8891" stroke="#040F1F" stroke-width="2"/>
</svg>
